<svg xmlns="http://www.w3.org/2000/svg" width="500" height="500" version="1.1"><path fill="#151822" d="M0 0 C34.86483715 0.15687216 69.95301237 13.29612179 95 38 C95 38.66 95 39.32 95 40 C95.66 40 96.32 40 97 40 C97 40.66 97 41.32 97 42 C97.55171875 42.21011719 98.1034375 42.42023438 98.671875 42.63671875 C101.83085036 44.48652144 103.93858587 47.03224412 106.25 49.8125 C106.73380127 50.39217529 107.21760254 50.97185059 107.71606445 51.5690918 C131.51127155 80.69587434 141.36870156 119.0401301 137.68652344 156.16015625 C133.85075661 187.82730541 120.13556771 215.1119484 98 238 C97.15179688 238.89976562 96.30359375 239.79953125 95.4296875 240.7265625 C90.0550408 246.30339027 84.51976246 250.8345962 78 255 C77.03578125 255.63550781 76.0715625 256.27101563 75.078125 256.92578125 C42.79084853 277.60730784 3.97633317 284.64296432 -33.72216797 276.54345703 C-71.64110198 267.49656024 -101.36854216 243.00935398 -122.08984375 210.74609375 C-135.14754255 189.28803729 -140.64964436 164.929151 -141 140 C-140 139 -140 139 -137.31616211 138.88647461 C-136.14835205 138.89171143 -134.98054199 138.89694824 -133.77734375 138.90234375 C-132.51728516 138.90556641 -131.25722656 138.90878906 -129.95898438 138.91210938 C-128.61848891 138.92046597 -127.27799412 138.92893093 -125.9375 138.9375 C-124.59310058 138.9425134 -123.2486994 138.94707658 -121.90429688 138.95117188 C-118.60282059 138.96300512 -115.30143197 138.97949029 -112 139 C-112.01305176 138.43804932 -112.02610352 137.87609863 -112.03955078 137.29711914 C-112.24779631 121.56136014 -107.59962723 105.7536732 -100 92 C-99.34 91.67 -98.68 91.34 -98 91 C-97.71125 90.27425781 -97.4225 89.54851562 -97.125 88.80078125 C-95.81454592 85.53829661 -94.06782482 83.02695797 -92 80.1875 C-91.29875 79.21167969 -90.5975 78.23585938 -89.875 77.23046875 C-89.25625 76.49441406 -88.6375 75.75835937 -88 75 C-87.34 75 -86.68 75 -86 75 C-85.61328125 74.12601563 -85.61328125 74.12601563 -85.21875 73.234375 C-83.90165983 70.8197097 -82.44911616 69.18259823 -80.5 67.25 C-79.8915625 66.63640625 -79.283125 66.0228125 -78.65625 65.390625 C-77 64 -77 64 -75 64 C-75 63.34 -75 62.68 -75 62 C-72.82507662 60.33377719 -70.66327396 58.8096762 -68.375 57.3125 C-67.69493896 56.86624268 -67.01487793 56.41998535 -66.31420898 55.96020508 C-48.8316585 44.688001 -30.051833 37.83017602 -9.09765625 37.95703125 C-8.41127075 37.96013306 -7.72488525 37.96323486 -7.0177002 37.96643066 C-5.34511521 37.97444043 -3.67255182 37.98676715 -2 38 C-1.43861432 59.76862568 -0.90039849 81.53560431 -0.875 103.3125 C-0.87125366 104.43319885 -0.87125366 104.43319885 -0.86743164 105.57653809 C-0.81164359 125.68366675 -0.81164359 125.68366675 -4.03125 129.25 C-4.8459375 129.8275 -5.660625 130.405 -6.5 131 C-10.62471981 134.32647835 -10.62471981 134.32647835 -12.25 139.1875 C-11.9886901 143.17247601 -11.51478616 144.94633109 -9 148 C-5.94586811 150.03608793 -3.97786772 150.72424272 -0.30859375 150.63671875 C5.61626159 149.00262159 9.88640368 143.18690024 14.02734375 138.90234375 C19.24791945 133.53230372 24.82873506 129.23837819 31 125 C31.84957275 124.40783691 31.84957275 124.40783691 32.71630859 123.80371094 C69.31607603 98.34213762 69.31607603 98.34213762 87.875 100.4375 C89.421875 100.7159375 89.421875 100.7159375 91 101 C87.30289276 93.72939701 83.65714089 87.07238716 78.3828125 80.8046875 C77 79 77 79 76 76 C75.34 76 74.68 76 74 76 C72.4140625 74.35546875 72.4140625 74.35546875 70.625 72.1875 C68.76433718 69.93749143 67.13127297 68.09649715 64.7734375 66.36328125 C64.18820312 65.91339844 63.60296875 65.46351563 63 65 C63 64.34 63 63.68 63 63 C62.443125 62.73703125 61.88625 62.4740625 61.3125 62.203125 C58.75259336 60.87128168 56.40754979 59.34070254 54 57.75 C36.22117011 46.42979392 19.72639039 42.44618423 -1 41 C-1.02464705 35.32169922 -1.04283462 29.64342931 -1.05493164 23.96508789 C-1.05997256 22.03181415 -1.06680519 20.09854424 -1.07543945 18.1652832 C-1.08751565 15.39273128 -1.09323057 12.62022959 -1.09765625 9.84765625 C-1.10281754 8.97786636 -1.10797882 8.10807648 -1.11329651 7.21192932 C-1.11349185 5.14094186 -1.06208168 3.07005676 -1 1 C-0.67 0.67 -0.34 0.34 0 0 Z M-48 64 C-47 66 -47 66 -47 66 Z M-47 66 C-46 68 -46 68 -46 68 Z M43 213 C44 215 44 215 44 215 Z M44 215 C44.33 215.99 44.66 216.98 45 218 C45 217.01 45 216.02 45 215 C44.67 215 44.34 215 44 215 Z M-48 216 C-47 218 -47 218 -47 218 Z" transform="translate(252,111)"/><path fill="#181A24" d="M0 0 C0.33 0 0.66 0 1 0 C2.28958459 38.88593533 -6.60932077 74.87020473 -33.4375 104.1875 C-35.27410974 106.14293041 -37.13481221 108.07140639 -39 110 C-39.84820312 110.89976562 -40.69640625 111.79953125 -41.5703125 112.7265625 C-46.9449592 118.30339027 -52.48023754 122.8345962 -59 127 C-59.96421875 127.63550781 -60.9284375 128.27101563 -61.921875 128.92578125 C-94.20915147 149.60730784 -133.02366683 156.64296432 -170.72216797 148.54345703 C-208.64110198 139.49656024 -238.36854216 115.00935398 -259.08984375 82.74609375 C-272.39041924 60.88891171 -276.93579137 37.20494115 -278 12 C-277.01 12.495 -277.01 12.495 -276 13 C-274.36582405 13.0902835 -272.72797163 13.11755658 -271.09130859 13.11352539 C-270.07040131 13.11344986 -269.04949402 13.11337433 -267.99765015 13.11329651 C-266.89240997 13.10813522 -265.7871698 13.10297394 -264.6484375 13.09765625 C-262.95468491 13.09553383 -262.95468491 13.09553383 -261.22671509 13.09336853 C-257.60945012 13.08775744 -253.99224636 13.07520303 -250.375 13.0625 C-247.92708423 13.05748643 -245.47916748 13.05292328 -243.03125 13.04882812 C-237.02081234 13.0377844 -231.01041054 13.02103544 -225 13 C-225 13.99 -225 14.98 -225 16 C-228.96 16 -232.92 16 -237 16 C-235.05929617 30.33837653 -232.93127569 43.73371338 -227 57 C-222.82564502 57.34825873 -222.82564502 57.34825873 -219.25 55.625 C-218.8375 55.08875 -218.425 54.5525 -218 54 C-217.34 53.34 -216.68 52.68 -216 52 C-214.68 52.66 -213.36 53.32 -212 54 C-213.04725811 57.25813633 -214.57016768 58.53606177 -217.4375 60.1875 C-221 62 -221 62 -224 63 C-223.505 63.433125 -223.01 63.86625 -222.5 64.3125 C-221 66 -221 66 -221 69 C-220.34 69 -219.68 69 -219 69 C-218.67 70.32 -218.34 71.64 -218 73 C-217.34 73 -216.68 73 -216 73 C-213 76.46153846 -213 76.46153846 -213 79 C-211.515 79.495 -211.515 79.495 -210 80 C-208.33333333 82 -206.66666667 84 -205 86 C-203.515 86.495 -203.515 86.495 -202 87 C-199.68280587 89.20133442 -197.48409844 91.41908187 -195.4375 93.875 C-194.03352603 95.21185596 -194.03352603 95.21185596 -191.9375 95 C-189.2196128 93.59721951 -189.04645142 91.79053713 -188 89 C-187.01 88.67 -186.02 88.34 -185 88 C-184.3125 89.75 -184.3125 89.75 -184 92 C-185.375 94 -185.375 94 -187 96 C-187.70514846 98.14733927 -187.70514846 98.14733927 -188 100 C-187.28457031 100.11730469 -186.56914062 100.23460937 -185.83203125 100.35546875 C-182.87681863 101.02803438 -180.44140104 102.05435285 -177.6875 103.3125 C-165.29835224 108.5505588 -153.34013289 110.48691797 -140 111 C-140 104.4 -140 97.8 -140 91 C-139.01 91 -138.02 91 -137 91 C-137 97.6 -137 104.2 -137 111 C-124.90599663 110.32811092 -114.36599718 108.93477034 -102.875 105.0625 C-101.83859375 104.71445312 -100.8021875 104.36640625 -99.734375 104.0078125 C-93.74753975 101.99374877 -93.74753975 101.99374877 -89 98 C-89.680625 96.88625 -90.36125 95.7725 -91.0625 94.625 C-92.22265625 92.7265625 -92.22265625 92.7265625 -93 91 C-92.67 90.34 -92.34 89.68 -92 89 C-91.34 89 -90.68 89 -90 89 C-87.95830515 91.90548882 -87 93.40142046 -87 97 C-81.71726714 93.55154938 -76.58584738 90.00703127 -71.62890625 86.1015625 C-70 85 -70 85 -68 85 C-67.34 83.35 -66.68 81.7 -66 80 C-65.34 80 -64.68 80 -64 80 C-64 79.34 -64 78.68 -64 78 C-63.34 78 -62.68 78 -62 78 C-61.73703125 77.4328125 -61.4740625 76.865625 -61.203125 76.28125 C-59.90978636 73.82894556 -58.39876646 71.72806278 -56.75 69.5 C-45.48765217 53.4943812 -40.48522766 35.30795952 -39 16 C-43.62 16 -48.24 16 -53 16 C-53 15.01 -53 14.02 -53 13 C-35.84 13 -18.68 13 -1 13 C-0.67 8.71 -0.34 4.42 0 0 Z" transform="translate(389,239)"/><path fill="#343740" d="M0 0 C0.99 0.495 0.99 0.495 2 1 C3.63417595 1.0902835 5.27202837 1.11755658 6.90869141 1.11352539 C7.92959869 1.11344986 8.95050598 1.11337433 10.00234985 1.11329651 C11.10759003 1.10813522 12.2128302 1.10297394 13.3515625 1.09765625 C15.04531509 1.09553383 15.04531509 1.09553383 16.77328491 1.09336853 C20.39054988 1.08775744 24.00775364 1.07520303 27.625 1.0625 C30.07291577 1.05748643 32.52083252 1.05292328 34.96875 1.04882812 C40.97918766 1.0377844 46.98958946 1.02103544 53 1 C53 1.99 53 2.98 53 4 C49.04 4 45.08 4 41 4 C42.94070383 18.33837653 45.06872431 31.73371338 51 45 C55.17435498 45.34825873 55.17435498 45.34825873 58.75 43.625 C59.1625 43.08875 59.575 42.5525 60 42 C60.66 41.34 61.32 40.68 62 40 C63.32 40.66 64.64 41.32 66 42 C64.95274189 45.25813633 63.42983232 46.53606177 60.5625 48.1875 C57 50 57 50 54 51 C54.495 51.433125 54.99 51.86625 55.5 52.3125 C57 54 57 54 57 57 C57.66 57 58.32 57 59 57 C59.495 58.98 59.495 58.98 60 61 C60.66 61 61.32 61 62 61 C65 64.46153846 65 64.46153846 65 67 C66.485 67.495 66.485 67.495 68 68 C69.66666667 70 71.33333333 72 73 74 C74.485 74.495 74.485 74.495 76 75 C78.31719413 77.20133442 80.51590156 79.41908187 82.5625 81.875 C83.96647397 83.21185596 83.96647397 83.21185596 86.0625 83 C88.7803872 81.59721951 88.95354858 79.79053713 90 77 C90.99 76.67 91.98 76.34 93 76 C93.6875 77.75 93.6875 77.75 94 80 C92.625 82 92.625 82 91 84 C90.29485154 86.14733927 90.29485154 86.14733927 90 88 C90.71542969 88.11730469 91.43085938 88.23460937 92.16796875 88.35546875 C95.12318137 89.02803438 97.55859896 90.05435285 100.3125 91.3125 C112.70164776 96.5505588 124.65986711 98.48691797 138 99 C138 92.4 138 85.8 138 79 C138.99 79 139.98 79 141 79 C141 85.6 141 92.2 141 99 C153.09400337 98.32811092 163.63400282 96.93477034 175.125 93.0625 C176.16140625 92.71445312 177.1978125 92.36640625 178.265625 92.0078125 C184.25246025 89.99374877 184.25246025 89.99374877 189 86 C188.319375 84.88625 187.63875 83.7725 186.9375 82.625 C185.77734375 80.7265625 185.77734375 80.7265625 185 79 C185.33 78.34 185.66 77.68 186 77 C186.66 77 187.32 77 188 77 C190.04169485 79.90548882 191 81.40142046 191 85 C196.28273286 81.55154938 201.41415262 78.00703127 206.37109375 74.1015625 C208 73 208 73 210 73 C210.66 71.35 211.32 69.7 212 68 C212.66 68 213.32 68 214 68 C214 67.34 214 66.68 214 66 C214.66 66 215.32 66 216 66 C216.26296875 65.4328125 216.5259375 64.865625 216.796875 64.28125 C218.09021364 61.82894556 219.60123354 59.72806278 221.25 57.5 C232.51234783 41.4943812 237.51477234 23.30795952 239 4 C234.38 4 229.76 4 225 4 C225 3.01 225 2.02 225 1 C230.09031755 0.95063842 235.18049643 0.91429895 240.27099609 0.89013672 C242.00344265 0.88006624 243.73587216 0.86640911 245.46826172 0.84912109 C247.95544639 0.82491838 250.44240675 0.81352761 252.9296875 0.8046875 C253.70682098 0.79436493 254.48395447 0.78404236 255.28463745 0.77340698 C257.19125493 0.77300729 259.09731036 0.8776786 261 1 C261.66 1.66 262.32 2.32 263 3 C262 4 262 4 258.9375 4.0625 C257.968125 4.041875 256.99875 4.02125 256 4 C256.02320313 5.30839844 256.04640625 6.61679687 256.0703125 7.96484375 C256.04772951 27.23189562 248.84312061 44.25562961 240 61 C239.34 61 238.68 61 238 61 C237.34 62.98 236.68 64.96 236 67 C235.34 67 234.68 67 234 67 C233.62875 68.0828125 233.62875 68.0828125 233.25 69.1875 C231.87730408 72.27606582 230.27646704 74.51011418 228 77 C227.34 77 226.68 77 226 77 C225.938125 77.61875 225.87625 78.2375 225.8125 78.875 C225.544375 79.57625 225.27625 80.2775 225 81 C223.34795544 81.70211894 221.68076231 82.36971413 220 83 C219.67 83.99 219.34 84.98 219 86 C218.34 86 217.68 86 217 86 C217 86.66 217 87.32 217 88 C213.53846154 91 213.53846154 91 211 91 C211 91.66 211 92.32 211 93 C190.5826128 108.12662077 166.28102824 115.76738366 141 115 C141 117.97 141 120.94 141 124 C130.51477984 124.40156162 121.25210222 123.44296529 111 121 C109.61741267 120.69429239 108.2345951 120.38962438 106.8515625 120.0859375 C99.88317261 118.50602338 93.50144945 116.63490614 87.1953125 113.171875 C83.91266366 111.41957135 80.50600907 110.23359578 77 109 C77 108.34 77 107.68 77 107 C76.29875 106.731875 75.5975 106.46375 74.875 106.1875 C70.27147489 104.28604398 65.76093242 102.32697868 62 99 C62 98.34 62 97.68 62 97 C60.35 96.34 58.7 95.68 57 95 C57 94.34 57 93.68 57 93 C56.26652344 92.76539063 55.53304687 92.53078125 54.77734375 92.2890625 C47.51582993 88.91873963 41.21559792 79.74495667 37 73 C37 72.34 37 71.68 37 71 C36.34 71 35.68 71 35 71 C30.68430164 65.74482989 28.33329801 59.29990464 26 53 C25.74476563 52.35417969 25.48953125 51.70835937 25.2265625 51.04296875 C24.44284681 49.04154428 23.71499784 47.02701887 23 45 C22.6803125 44.11441406 22.360625 43.22882813 22.03125 42.31640625 C19.73144003 35.47795615 18.32482196 28.74960867 17.25 21.625 C17.12238281 20.78098633 16.99476562 19.93697266 16.86328125 19.06738281 C16.18270271 14.24024568 16 9.96311249 16 5 C11.38 5 6.76 5 2 5 C2 9.29 2 13.58 2 18 C1.67 18 1.34 18 1 18 C0.67 12.06 0.34 6.12 0 0 Z" transform="translate(111,251)"/><path fill="#383A41" d="M0 0 C1 1 1 1 1.11352539 3.31665039 C1.10828857 4.31688232 1.10305176 5.31711426 1.09765625 6.34765625 C1.09443359 7.42724609 1.09121094 8.50683594 1.08789062 9.61914062 C1.07951172 10.75544922 1.07113281 11.89175781 1.0625 13.0625 C1.05798828 14.20267578 1.05347656 15.34285156 1.04882812 16.51757812 C1.03699747 19.34510351 1.0205141 22.1725264 1 25 C0.26587891 25.06993164 -0.46824219 25.13986328 -1.22460938 25.21191406 C-39.70633329 28.95888217 -69.98241444 40.40101494 -96 70 C-109.67907703 86.83368615 -118.21469039 108.97079763 -120.4453125 130.4609375 C-121.07528742 133.34462553 -121.54569434 134.37470425 -124 136 C-126.375 136.328125 -126.375 136.328125 -129 136.25 C-129.86625 136.23453125 -130.7325 136.2190625 -131.625 136.203125 C-134 136 -134 136 -137 135 C-138.00479387 113.93654341 -132.3183294 94.6983696 -123 76 C-122.55011719 75.06542969 -122.10023437 74.13085938 -121.63671875 73.16796875 C-115.23212148 60.56659301 -105.42227966 47.57722996 -95 38 C-94.34 38 -93.68 38 -93 38 C-93 37.34 -93 36.68 -93 36 C-91.66162109 34.70654297 -91.66162109 34.70654297 -89.7734375 33.2421875 C-88.73098877 32.43322021 -88.73098877 32.43322021 -87.66748047 31.60791016 C-86.91096191 31.0360498 -86.15444336 30.46418945 -85.375 29.875 C-84.60172363 29.28895996 -83.82844727 28.70291992 -83.03173828 28.09912109 C-76.31346666 23.09045281 -69.46469091 18.83390587 -62 15 C-61.41573242 14.69368652 -60.83146484 14.38737305 -60.22949219 14.07177734 C-42.09416704 4.64987076 -20.50680755 -0.8137622 0 0 Z" transform="translate(249,111)"/><path fill="#262933" d="M0 0 C5.09031755 -0.04936158 10.18049643 -0.08570105 15.27099609 -0.10986328 C17.00344265 -0.11993376 18.73587216 -0.13359089 20.46826172 -0.15087891 C22.95544639 -0.17508162 25.44240675 -0.18647239 27.9296875 -0.1953125 C28.70682098 -0.20563507 29.48395447 -0.21595764 30.28463745 -0.22659302 C32.19125493 -0.22699271 34.09731036 -0.1223214 36 0 C36.99 0.99 36.99 0.99 38 2 C37 3 37 3 33.9375 3.0625 C32.968125 3.041875 31.99875 3.02125 31 3 C31.02320313 4.30839844 31.04640625 5.61679687 31.0703125 6.96484375 C31.04772951 26.23189562 23.84312061 43.25562961 15 60 C14.34 60 13.68 60 13 60 C12.01 62.97 12.01 62.97 11 66 C10.34 66 9.68 66 9 66 C8.62875 67.0828125 8.62875 67.0828125 8.25 68.1875 C6.87730408 71.27606582 5.27646704 73.51011418 3 76 C2.34 76 1.68 76 1 76 C0.938125 76.61875 0.87625 77.2375 0.8125 77.875 C0.544375 78.57625 0.27625 79.2775 0 80 C-1.65204456 80.70211894 -3.31923769 81.36971413 -5 82 C-5.495 83.485 -5.495 83.485 -6 85 C-6.66 85 -7.32 85 -8 85 C-8 85.66 -8 86.32 -8 87 C-11.46153846 90 -11.46153846 90 -14 90 C-14 90.66 -14 91.32 -14 92 C-34.51760368 107.20086811 -58.63463379 114.57000823 -84 114 C-84 108.72 -84 103.44 -84 98 C-82.7625 97.9484375 -81.525 97.896875 -80.25 97.84375 C-69.62053885 97.21378682 -59.9849556 95.46938285 -49.875 92.0625 C-48.83859375 91.71445312 -47.8021875 91.36640625 -46.734375 91.0078125 C-40.74753975 88.99374877 -40.74753975 88.99374877 -36 85 C-36.680625 83.88625 -37.36125 82.7725 -38.0625 81.625 C-39.22265625 79.7265625 -39.22265625 79.7265625 -40 78 C-39.67 77.34 -39.34 76.68 -39 76 C-38.34 76 -37.68 76 -37 76 C-34.95830515 78.90548882 -34 80.40142046 -34 84 C-28.71726714 80.55154938 -23.58584738 77.00703127 -18.62890625 73.1015625 C-17 72 -17 72 -15 72 C-14.34 70.35 -13.68 68.7 -13 67 C-12.34 67 -11.68 67 -11 67 C-11 66.34 -11 65.68 -11 65 C-10.34 65 -9.68 65 -9 65 C-8.73703125 64.4328125 -8.4740625 63.865625 -8.203125 63.28125 C-6.90978636 60.82894556 -5.39876646 58.72806278 -3.75 56.5 C7.51234783 40.4943812 12.51477234 22.30795952 14 3 C9.38 3 4.76 3 0 3 C0 2.01 0 1.02 0 0 Z" transform="translate(336,252)"/><path fill="#3C3C42" d="M0 0 C-0.84607907 4.68588038 -3.71224554 6.72039128 -7.25 9.625 C-7.87970703 10.15279053 -8.50941406 10.68058105 -9.15820312 11.22436523 C-14.24144009 15.45339959 -19.44829919 19.51205725 -24.71875 23.50390625 C-28.18022547 26.12601553 -31.59152751 28.80954643 -35 31.5 C-40.09459554 35.51662094 -45.22228036 39.48680516 -50.37353516 43.43041992 C-53.74262708 46.01553213 -57.06977449 48.64635132 -60.375 51.3125 C-61.17035156 51.94542969 -61.96570313 52.57835937 -62.78515625 53.23046875 C-64.20206788 54.36249868 -65.60709326 55.50967321 -66.99609375 56.67578125 C-68.8125 58.125 -68.8125 58.125 -72 60 C-74.875 59.5625 -74.875 59.5625 -77 58 C-78.30930559 55.46867586 -78.087339 54.29357822 -77.27709961 51.57006836 C-75.7763473 48.54991552 -74.4361592 47.52133402 -71.62890625 45.69140625 C-70.73187988 45.09602051 -69.83485352 44.50063477 -68.91064453 43.88720703 C-67.46987549 42.95303955 -67.46987549 42.95303955 -66 42 C-64.029039 40.67713445 -62.05900674 39.35288426 -60.08984375 38.02734375 C-58.03985783 36.66286684 -55.98906846 35.29959631 -53.9375 33.9375 C-52.91333984 33.25623047 -51.88917969 32.57496094 -50.83398438 31.87304688 C-48.82632976 30.53760377 -46.81836414 29.20262807 -44.81005859 27.86816406 C-42.23765111 26.15799359 -39.66720637 24.4449282 -37.09765625 22.73046875 C-34.76710407 21.17580747 -32.43343888 19.62686163 -30.09375 18.0859375 C-25.52985789 15.07541831 -21.01905871 12.0309424 -16.59375 8.8203125 C-15.83384766 8.27197754 -15.07394531 7.72364258 -14.29101562 7.15869141 C-12.78382839 6.06749042 -11.28232182 4.9683924 -9.78710938 3.86083984 C-8.74780273 3.10988037 -8.74780273 3.10988037 -7.6875 2.34375 C-7.07261719 1.89193359 -6.45773437 1.44011719 -5.82421875 0.97460938 C-4 0 -4 0 0 0 Z" transform="translate(323,197)"/><path fill="#3D3F46" d="M0 0 C0.2734375 2.26171875 0.2734375 2.26171875 0 5 C-1.8359375 6.95703125 -1.8359375 6.95703125 -4.375 8.8125 C-5.28636719 9.49570313 -6.19773437 10.17890625 -7.13671875 10.8828125 C-8.08160156 11.58148438 -9.02648437 12.28015625 -10 13 C-11.73478086 14.38884967 -13.46416276 15.78447583 -15.1875 17.1875 C-16.00992187 17.83847656 -16.83234375 18.48945313 -17.6796875 19.16015625 C-19.13737131 20.31599644 -20.58231518 21.48828374 -22.0078125 22.68359375 C-23.8125 24.125 -23.8125 24.125 -27 26 C-29.875 25.5625 -29.875 25.5625 -32 24 C-33.30692256 21.47328306 -33.0867862 20.294504 -32.28515625 17.57421875 C-30.75980673 14.51888339 -29.34722819 13.47209423 -26.5 11.625 C-25.16388672 10.74328125 -25.16388672 10.74328125 -23.80078125 9.84375 C-22.87652344 9.2353125 -21.95226562 8.626875 -21 8 C-18.43577027 6.13510565 -15.87635436 4.26422156 -13.32421875 2.3828125 C-9.04383582 -0.1638355 -4.88448851 -0.11359276 0 0 Z" transform="translate(278,231)"/><path fill="#B3B5C1" d="M0 0 C0.99 0.495 0.99 0.495 2 1 C3.63417595 1.0902835 5.27202837 1.11755658 6.90869141 1.11352539 C7.92959869 1.11344986 8.95050598 1.11337433 10.00234985 1.11329651 C11.10759003 1.10813522 12.2128302 1.10297394 13.3515625 1.09765625 C15.04531509 1.09553383 15.04531509 1.09553383 16.77328491 1.09336853 C20.39054988 1.08775744 24.00775364 1.07520303 27.625 1.0625 C30.07291577 1.05748643 32.52083252 1.05292328 34.96875 1.04882812 C40.97918766 1.0377844 46.98958946 1.02103544 53 1 C53 1.99 53 2.98 53 4 C48.14778433 4.14524585 43.29549261 4.28750675 38.44311523 4.42724609 C36.79953774 4.47496958 35.15598191 4.52344633 33.51245117 4.57275391 C23.00276396 4.88743443 12.51467974 5.05202068 2 5 C2 9.29 2 13.58 2 18 C1.67 18 1.34 18 1 18 C0.67 12.06 0.34 6.12 0 0 Z" transform="translate(111,251)"/><path fill="#31323C" d="M0 0 C1 3 1 3 0.5625 5.3125 C-1.7571788 9.30234754 -4.89521564 11.90042639 -9 14 C-11.9375 13.625 -11.9375 13.625 -14 12 C-15.29927058 9.48807689 -15.04243644 8.19332158 -14.4375 5.4375 C-11.66293758 0.73280719 -5.21236471 -2.08494588 0 0 Z" transform="translate(260,243)"/><path fill="#43444A" d="M0 0 C-0.56888967 3.2994715 -1.43456195 4.76300429 -3.984375 6.91015625 C-4.59023438 7.42513672 -5.19609375 7.94011719 -5.8203125 8.47070312 C-6.77550781 9.25864258 -6.77550781 9.25864258 -7.75 10.0625 C-8.37132812 10.59166016 -8.99265625 11.12082031 -9.6328125 11.66601562 C-12.93736879 14.44421327 -16.2043365 16.90659017 -20 19 C-20 17.35 -20 15.7 -20 14 C-20.66 13.67 -21.32 13.34 -22 13 C-19.5630847 11.20753339 -17.12549489 9.41599716 -14.6875 7.625 C-13.99720703 7.11710938 -13.30691406 6.60921875 -12.59570312 6.0859375 C-11.92861328 5.59609375 -11.26152344 5.10625 -10.57421875 4.6015625 C-9.96151123 4.15119629 -9.34880371 3.70083008 -8.7175293 3.23681641 C-4.22266088 0 -4.22266088 0 0 0 Z" transform="translate(323,197)"/><path fill="#91939F" d="M0 0 C5.09031755 -0.04936158 10.18049643 -0.08570105 15.27099609 -0.10986328 C17.00344265 -0.11993376 18.73587216 -0.13359089 20.46826172 -0.15087891 C22.95544639 -0.17508162 25.44240675 -0.18647239 27.9296875 -0.1953125 C28.70682098 -0.20563507 29.48395447 -0.21595764 30.28463745 -0.22659302 C32.19125493 -0.22699271 34.09731036 -0.1223214 36 0 C36.66 0.66 37.32 1.32 38 2 C37 3 37 3 33.48999023 3.11352539 C31.92951578 3.11336626 30.36903607 3.10767142 28.80859375 3.09765625 C27.98875504 3.0962413 27.16891632 3.09482635 26.32423401 3.09336853 C23.69528618 3.08775289 21.06642227 3.07519779 18.4375 3.0625 C16.65950643 3.05748701 14.88151154 3.05292376 13.10351562 3.04882812 C8.73564455 3.03777839 4.36783652 3.02050331 0 3 C0 2.01 0 1.02 0 0 Z" transform="translate(336,252)"/><path fill="#848791" d="M0 0 C0.99 0 1.98 0 3 0 C3 14.85 3 29.7 3 45 C2.34 45 1.68 45 1 45 C0.67 30.15 0.34 15.3 0 0 Z" transform="translate(249,330)"/><path fill="#636369" d="M0 0 C0.33 0 0.66 0 1 0 C1.02698189 1.62490954 1.04638757 3.24994633 1.0625 4.875 C1.07410156 5.77992188 1.08570313 6.68484375 1.09765625 7.6171875 C1 10 1 10 0 12 C-8.91 12 -17.82 12 -27 12 C-27.33 11.01 -27.66 10.02 -28 9 C-18.76 9 -9.52 9 0 9 C0 6.03 0 3.06 0 0 Z" transform="translate(140,241)"/><path fill="#80828A" d="M0 0 C0.99 0.495 0.99 0.495 2 1 C3.59262066 1.15175549 5.19064856 1.24900325 6.7890625 1.31640625 C7.73007813 1.35830078 8.67109375 1.40019531 9.640625 1.44335938 C10.62546875 1.48267578 11.6103125 1.52199219 12.625 1.5625 C13.61757812 1.60568359 14.61015625 1.64886719 15.6328125 1.69335938 C18.08839838 1.79961069 20.54408703 1.90164964 23 2 C23 2.33 23 2.66 23 3 C21.02 3 19.04 3 17 3 C17 3.66 17 4.32 17 5 C12.05 5 7.1 5 2 5 C2 9.29 2 13.58 2 18 C1.67 18 1.34 18 1 18 C0.67 12.06 0.34 6.12 0 0 Z" transform="translate(111,251)"/><path fill="#3F3F47" d="M0 0 C3.04470873 1.52235436 4.20270948 4.18424486 6 7 C3.69 8.65 1.38 10.3 -1 12 C-1.66 10.35 -2.32 8.7 -3 7 C-5.31 7.33 -7.62 7.66 -10 8 C-6.97727468 4.74475735 -3.74281699 2.38179263 0 0 Z" transform="translate(279,224)"/><path fill="#46464D" d="M0 0 C0.33 0.66 0.66 1.32 1 2 C2.98 2 4.96 2 7 2 C7 2.66 7 3.32 7 4 C5.13671875 5.76171875 5.13671875 5.76171875 2.6875 7.6875 C1.48673828 8.65236328 1.48673828 8.65236328 0.26171875 9.63671875 C-0.48464844 10.08660156 -1.23101562 10.53648437 -2 11 C-2.99 10.67 -3.98 10.34 -5 10 C-5 9.34 -5 8.68 -5 8 C-4.34 7.67 -3.68 7.34 -3 7 C-3.33 5.35 -3.66 3.7 -4 2 C-2.68 1.34 -1.36 0.68 0 0 Z" transform="translate(292,216)"/><path fill="#3B3E48" d="M0 0 C2.57096901 1.82455865 3.19703129 3.33907827 3.9375 6.375 C2.9475 7.86 2.9475 7.86 1.9375 9.375 C1.6075 10.035 1.2775 10.695 0.9375 11.375 C-0.3825 11.045 -1.7025 10.715 -3.0625 10.375 C-3.0625 9.715 -3.0625 9.055 -3.0625 8.375 C-2.4025 8.375 -1.7425 8.375 -1.0625 8.375 C-1.3925 7.055 -1.7225 5.735 -2.0625 4.375 C-3.3825 4.045 -4.7025 3.715 -6.0625 3.375 C-5.7325 2.385 -5.4025 1.395 -5.0625 0.375 C-2.0625 -0.625 -2.0625 -0.625 0 0 Z" transform="translate(173.0625,204.625)"/><path fill="#71767E" d="M0 0 C2.475 0.99 2.475 0.99 5 2 C3.96995913 5.2045716 2.39161457 6.63327691 -0.375 8.375 C-4 10 -4 10 -6.4375 9.25 C-6.953125 8.8375 -7.46875 8.425 -8 8 C-7.50628906 7.67386719 -7.01257813 7.34773438 -6.50390625 7.01171875 C-5.86324219 6.57472656 -5.22257813 6.13773437 -4.5625 5.6875 C-3.92441406 5.25824219 -3.28632813 4.82898438 -2.62890625 4.38671875 C-0.7114316 2.9965948 -0.7114316 2.9965948 0 0 Z" transform="translate(172,291)"/><path fill="#575965" d="M0 0 C5.09031755 -0.04936158 10.18049643 -0.08570105 15.27099609 -0.10986328 C17.00344265 -0.11993376 18.73587216 -0.13359089 20.46826172 -0.15087891 C22.95544639 -0.17508162 25.44240675 -0.18647239 27.9296875 -0.1953125 C28.70682098 -0.20563507 29.48395447 -0.21595764 30.28463745 -0.22659302 C32.19125493 -0.22699271 34.09731036 -0.1223214 36 0 C36.66 0.66 37.32 1.32 38 2 C37 3 37 3 33.9375 3.0625 C32.968125 3.041875 31.99875 3.02125 31 3 C31 2.34 31 1.68 31 1 C20.77 1 10.54 1 0 1 C0 0.67 0 0.34 0 0 Z" transform="translate(336,252)"/><path fill="#2C2C36" d="M0 0 C0.1875 2.375 0.1875 2.375 0 5 C-3 7 -3 7 -6.1875 6.625 C-7.115625 6.41875 -8.04375 6.2125 -9 6 C-9.33 4.68 -9.66 3.36 -10 2 C-6.5980513 -0.09350689 -3.94727588 -0.17942163 0 0 Z" transform="translate(278,231)"/><path fill="#5D656A" d="M0 0 C2.31 0.33 4.62 0.66 7 1 C7.66 2.65 8.32 4.3 9 6 C5.29218328 7.23593891 4.32489747 6.5678132 0.8125 5.0625 C-0.08855469 4.68222656 -0.98960937 4.30195313 -1.91796875 3.91015625 C-2.60503906 3.60980469 -3.29210937 3.30945313 -4 3 C-2.68 2.67 -1.36 2.34 0 2 C0 1.34 0 0.68 0 0 Z M4 1 C5 3 5 3 5 3 Z" transform="translate(286,154)"/><path fill="#68696F" d="M0 0 C1 2 1 2 0.3125 5 C-1.15671839 8.35821346 -1.78122322 8.65019038 -5 10 C-5.33 10.99 -5.66 11.98 -6 13 C-6.99 13.33 -7.98 13.66 -9 14 C-7.65070536 10.16336928 -5.92248975 7.34827431 -3.375 4.1875 C-2.42753906 3.00220703 -2.42753906 3.00220703 -1.4609375 1.79296875 C-0.97882813 1.20128906 -0.49671875 0.60960937 0 0 Z" transform="translate(163,188)"/><path fill="#3C3D45" d="M0 0 C0 1.98 0 3.96 0 6 C-3.71888239 5.49287967 -6.73454239 4.88391785 -10 3 C-8.68 3 -7.36 3 -6 3 C-6 2.34 -6 1.68 -6 1 C-3 0 -3 0 0 0 Z" transform="translate(213,379)"/><path fill="#525359" d="M0 0 C3.28788824 3.11016455 5.83735988 6.01618925 8 10 C6.35 10 4.7 10 3 10 C0.96564469 6.27034861 0 4.33094958 0 0 Z" transform="translate(353,156)"/><path fill="#D0D0D3" d="M0 0 C2.64 0.66 5.28 1.32 8 2 C8 2.33 8 2.66 8 3 C6.02 3 4.04 3 2 3 C2 7.95 2 12.9 2 18 C1.67 18 1.34 18 1 18 C0.67 12.06 0.34 6.12 0 0 Z" transform="translate(111,251)"/><path fill="#20222B" d="M0 0 C0.639375 0.2475 1.27875 0.495 1.9375 0.75 C2.2675 1.74 2.5975 2.73 2.9375 3.75 C2.6075 4.41 2.2775 5.07 1.9375 5.75 C1.15375 5.564375 0.37 5.37875 -0.4375 5.1875 C-3.03339775 4.49037734 -3.03339775 4.49037734 -5.0625 5.75 C-4.6875 3.3125 -4.6875 3.3125 -4.0625 0.75 C-2.0625 -0.25 -2.0625 -0.25 0 0 Z" transform="translate(258.0625,242.25)"/><path fill="#6B6D72" d="M0 0 C2.31 0.33 4.62 0.66 7 1 C7 1.66 7 2.32 7 3 C7.66 3 8.32 3 9 3 C9.33 4.65 9.66 6.3 10 8 C9.34 8 8.68 8 8 8 C8 7.34 8 6.68 8 6 C7.4225 5.7525 6.845 5.505 6.25 5.25 C3.6997003 3.83316683 1.98214299 2.12372463 0 0 Z" transform="translate(307,168)"/><path fill="#5F6065" d="M0 0 C0.99 0 1.98 0 3 0 C3.33 0.99 3.66 1.98 4 3 C4.99 3.66 5.98 4.32 7 5 C8.01868662 5.98095748 9.02351983 6.97702078 10 8 C9.01 9.485 9.01 9.485 8 11 C6.66375099 9.35653302 5.33107149 7.71016314 4 6.0625 C3.2575 5.14597656 2.515 4.22945313 1.75 3.28515625 C0 1 0 1 0 0 Z" transform="translate(139,334)"/><path fill="#696970" d="M0 0 C3.05105101 1.017017 3.82646048 1.82646048 6 4 C6.66 4 7.32 4 8 4 C7.34 5.98 6.68 7.96 6 10 C3.25722422 6.80009492 1.3697164 3.99500618 0 0 Z" transform="translate(128,317)"/><path fill="#2F2F36" d="M0 0 C0.66 0 1.32 0 2 0 C0.6302836 3.99500618 -1.25722422 6.80009492 -4 10 C-4.66 8.68 -5.32 7.36 -6 6 C-2.25 3 -2.25 3 0 3 C0 2.01 0 1.02 0 0 Z" transform="translate(369,320)"/><path fill="#0C0E1A" d="M0 0 C0.66 0.33 1.32 0.66 2 1 C0.25 6.75 0.25 6.75 -2 9 C-2.99 8.67 -3.98 8.34 -5 8 C-5 7.34 -5 6.68 -5 6 C-3.68 5.67 -2.36 5.34 -1 5 C-1.33 3.68 -1.66 2.36 -2 1 C-1.34 0.67 -0.68 0.34 0 0 Z" transform="translate(337,296)"/><path fill="#5C5F6A" d="M0 0 C0.99 0 1.98 0 3 0 C5.49977543 3.33303391 6 4.73303602 6 9 C5.34 9 4.68 9 4 9 C0 2.25 0 2.25 0 0 Z" transform="translate(296,328)"/><path fill="#707076" d="M0 0 C0.66 0.33 1.32 0.66 2 1 C0.68 2.65 -0.64 4.3 -2 6 C-1.67 6.66 -1.34 7.32 -1 8 C-3.31 8.33 -5.62 8.66 -8 9 C-7.04270084 7.87411986 -6.08412105 6.7493285 -5.125 5.625 C-4.59132812 4.99851563 -4.05765625 4.37203125 -3.5078125 3.7265625 C-2.38567993 2.44163349 -1.20628025 1.20628025 0 0 Z" transform="translate(175,175)"/><path fill="#666978" d="M0 0 C1.65 0 3.3 0 5 0 C5.625 1.875 5.625 1.875 6 4 C5.34 4.66 4.68 5.32 4 6 C3.01 5.67 2.02 5.34 1 5 C0.67 3.35 0.34 1.7 0 0 Z" transform="translate(201,171)"/><path fill="#070913" d="M0 0 C2.97 0.495 2.97 0.495 6 1 C4.68 2.32 3.36 3.64 2 5 C0.68 4.34 -0.64 3.68 -2 3 C-1.34 2.01 -0.68 1.02 0 0 Z M-2 5 C0 6 0 6 0 6 Z" transform="translate(363,321)"/><path fill="#8D8F9A" d="M0 0 C3.48539917 0.64544429 6.02819057 2.10134397 9 4 C8.67 4.66 8.34 5.32 8 6 C5.0280615 4.87548273 2.66559313 3.77706209 0 2 C0 1.34 0 0.68 0 0 Z" transform="translate(323,292)"/><path fill="#67686D" d="M0 0 C-0.3125 1.875 -0.3125 1.875 -1 4 C-1.99 4.66 -2.98 5.32 -4 6 C-4 5.01 -4 4.02 -4 3 C-5.32 3.33 -6.64 3.66 -8 4 C-4.5 0 -4.5 0 0 0 Z" transform="translate(323,197)"/><path fill="#77787B" d="M0 0 C0 0.99 0 1.98 0 3 C-1.1446875 3.4021875 -1.1446875 3.4021875 -2.3125 3.8125 C-4.87380884 4.94424112 -6.19692938 5.91223401 -8 8 C-8.99 7.67 -9.98 7.34 -11 7 C-9.54634731 5.82750647 -8.08692581 4.66216184 -6.625 3.5 C-5.40683594 2.52546875 -5.40683594 2.52546875 -4.1640625 1.53125 C-2 0 -2 0 0 0 Z" transform="translate(175,134)"/><path fill="#76767C" d="M0 0 C1 3 1 3 -0.1875 5.5 C-1.94150569 7.9193182 -3.51794573 9.37382651 -6 11 C-6 7.39426104 -5.18292538 6.58663434 -3 3.8125 C-2.443125 3.09707031 -1.88625 2.38164062 -1.3125 1.64453125 C-0.879375 1.10183594 -0.44625 0.55914062 0 0 Z" transform="translate(143,161)"/><path fill="#5B5B61" d="M0 0 C0.66 0.33 1.32 0.66 2 1 C2 1.66 2 2.32 2 3 C1.34 3 0.68 3 0 3 C0 3.66 0 4.32 0 5 C-2.31 5.33 -4.62 5.66 -7 6 C-4.74259377 3.66475218 -2.7194239 1.81294927 0 0 Z" transform="translate(276,226)"/><path fill="#666970" d="M0 0 C1.875 1.25 1.875 1.25 2.875 4.25 C-0.095 3.92 -3.065 3.59 -6.125 3.25 C-5.795 2.26 -5.465 1.27 -5.125 0.25 C-2.125 -0.75 -2.125 -0.75 0 0 Z" transform="translate(173.125,204.75)"/><path fill="#64646C" d="M0 0 C4.875 1.75 4.875 1.75 6 4 C2.71303767 4.79953138 1.28976808 5.09658936 -2 4 C-1.34 2.68 -0.68 1.36 0 0 Z" transform="translate(320,130)"/><path fill="#53545A" d="M0 0 C0.99 0.33 1.98 0.66 3 1 C4.1875 4.0625 4.1875 4.0625 5 7 C2.11562221 5.70700306 0.12780579 4.34058637 -2 2 C-1.34 2 -0.68 2 0 2 C0 1.34 0 0.68 0 0 Z" transform="translate(169,360)"/><path fill="#828389" d="M0 0 C1.23912545 3.57969574 0.95063395 6.35590321 0 10 C-0.99 10.66 -1.98 11.32 -3 12 C-2.69106068 10.3743193 -2.3777305 8.74947252 -2.0625 7.125 C-1.88847656 6.22007812 -1.71445313 5.31515625 -1.53515625 4.3828125 C-1 2 -1 2 0 0 Z" transform="translate(118,206)"/><path fill="#8B8C8F" d="M0 0 C1.98 0 3.96 0 6 0 C6 0.66 6 1.32 6 2 C6.99 2.33 7.98 2.66 9 3 C9 3.66 9 4.32 9 5 C5.22454612 3.90931332 2.52956528 3.0916909 0 0 Z" transform="translate(295,161)"/><path fill="#3D3F47" d="M0 0 C1.485 0.99 1.485 0.99 3 2 C2.67 3.65 2.34 5.3 2 7 C1.01 6.67 0.02 6.34 -1 6 C-0.67 4.02 -0.34 2.04 0 0 Z" transform="translate(305,161)"/><path fill="#24232B" d="M0 0 C1.32 0.33 2.64 0.66 4 1 C2.25 4.875 2.25 4.875 0 6 C0 5.34 0 4.68 0 4 C-0.66 3.67 -1.32 3.34 -2 3 C-1.34 2.01 -0.68 1.02 0 0 Z" transform="translate(347,345)"/><path fill="#57595D" d="M0 0 C1.32 0.66 2.64 1.32 4 2 C1.69 3.65 -0.62 5.3 -3 7 C-2 3 -2 3 0 0 Z" transform="translate(315,202)"/><path fill="#222328" d="M0 0 C-1.65 1.32 -3.3 2.64 -5 4 C-5.33 2.68 -5.66 1.36 -6 0 C-3.50907189 -1.24546405 -2.58919267 -0.7767578 0 0 Z" transform="translate(323,217)"/><path fill="#83868A" d="M0 0 C1.32 0.66 2.64 1.32 4 2 C1.69 3.32 -0.62 4.64 -3 6 C-3.33 5.01 -3.66 4.02 -4 3 C-3.34 2.67 -2.68 2.34 -2 2 C-1.34 2.33 -0.68 2.66 0 3 C0 2.01 0 1.02 0 0 Z" transform="translate(176,155)"/><path fill="#FFF" transform="translate(0,0)"/><path fill="#FFF" transform="translate(0,0)"/><path fill="#FFF" transform="translate(0,0)"/><path fill="#FFF" transform="translate(0,0)"/><path fill="#FFF" transform="translate(0,0)"/><path fill="#FFF" transform="translate(0,0)"/><path fill="#FFF" transform="translate(0,0)"/><path fill="#FFF" transform="translate(0,0)"/><path fill="#FFF" transform="translate(0,0)"/><path fill="#FFF" transform="translate(0,0)"/><path fill="#FFF" transform="translate(0,0)"/><path fill="#FFF" transform="translate(0,0)"/><path fill="#FFF" transform="translate(0,0)"/><path fill="#FFF" transform="translate(0,0)"/><path fill="#FFF" transform="translate(0,0)"/><path fill="#FFF" transform="translate(0,0)"/><path fill="#FFF" transform="translate(0,0)"/><path fill="#FFF" transform="translate(0,0)"/><path fill="#FFF" transform="translate(0,0)"/><path fill="#FFF" transform="translate(0,0)"/><path fill="#FFF" transform="translate(0,0)"/><path fill="#FFF" transform="translate(0,0)"/><path fill="#FFF" transform="translate(0,0)"/><path fill="#FFF" transform="translate(0,0)"/><path fill="#FFF" transform="translate(0,0)"/><path fill="#FFF" transform="translate(0,0)"/><path fill="#FFF" transform="translate(0,0)"/><path fill="#FFF" transform="translate(0,0)"/><path fill="#FFF" transform="translate(0,0)"/><path fill="#FFF" transform="translate(0,0)"/><path fill="#FFF" transform="translate(0,0)"/><path fill="#FFF" transform="translate(0,0)"/><path fill="#FFF" transform="translate(0,0)"/><path fill="#FFF" transform="translate(0,0)"/><path fill="#FFF" transform="translate(0,0)"/><path fill="#FFF" transform="translate(0,0)"/><path fill="#FFF" transform="translate(0,0)"/><path fill="#FFF" transform="translate(0,0)"/><path fill="#FFF" transform="translate(0,0)"/><path fill="#FFF" transform="translate(0,0)"/><path fill="#FFF" transform="translate(0,0)"/><path fill="#FFF" transform="translate(0,0)"/><path fill="#FFF" transform="translate(0,0)"/><path fill="#FFF" transform="translate(0,0)"/><path fill="#FFF" transform="translate(0,0)"/><path fill="#FFF" transform="translate(0,0)"/><path fill="#FFF" transform="translate(0,0)"/><path fill="#FFF" transform="translate(0,0)"/><path fill="#FFF" transform="translate(0,0)"/><path fill="#FFF" transform="translate(0,0)"/><path fill="#FFF" transform="translate(0,0)"/><path fill="#FFF" transform="translate(0,0)"/><path fill="#FFF" transform="translate(0,0)"/><path fill="#FFF" transform="translate(0,0)"/><path fill="#FFF" transform="translate(0,0)"/><path fill="#FFF" transform="translate(0,0)"/><path fill="#FFF" transform="translate(0,0)"/><path fill="#FFF" transform="translate(0,0)"/><path fill="#FFF" transform="translate(0,0)"/><path fill="#FFF" transform="translate(0,0)"/><path fill="#FFF" transform="translate(0,0)"/><path fill="#FFF" transform="translate(0,0)"/><path fill="#FFF" transform="translate(0,0)"/><path fill="#FFF" transform="translate(0,0)"/><path fill="#FFF" transform="translate(0,0)"/><path fill="#FFF" transform="translate(0,0)"/></svg>