<?xml version="1.0" encoding="UTF-8"?>
<svg version="1.1" xmlns="http://www.w3.org/2000/svg" width="625" height="625">
<path d="M0 0 C206.25 0 412.5 0 625 0 C625 206.25 625 412.5 625 625 C418.75 625 212.5 625 0 625 C0 418.75 0 212.5 0 0 Z " fill="#13151F" transform="translate(0,0)"/>
<path d="M0 0 C206.25 0 412.5 0 625 0 C625 206.25 625 412.5 625 625 C418.75 625 212.5 625 0 625 C0 418.75 0 212.5 0 0 Z M311 28 C311 54.4 311 80.8 311 108 C321.89 108.495 321.89 108.495 333 109 C337.51696283 109.63688196 341.81710845 110.30115607 346.25 111.25 C347.33788818 111.47252441 348.42577637 111.69504883 349.54663086 111.92431641 C380.67678148 118.44297408 410.27142965 130.62536143 435 151 C436.010625 151.80308594 437.02125 152.60617188 438.0625 153.43359375 C440.74465649 155.58304416 443.38147793 157.77364348 446 160 C446.81597656 160.69222656 447.63195312 161.38445312 448.47265625 162.09765625 C467.03852471 178.30969036 481.70394529 198.16096089 493 220 C493.47566406 220.91136719 493.95132812 221.82273438 494.44140625 222.76171875 C498.15420871 230.00750133 498.15420871 230.00750133 499 234 C498.01 233.67 497.02 233.34 496 233 C493.17414035 232.84928749 490.38923227 232.7687046 487.5625 232.75 C486.81806641 232.729375 486.07363281 232.70875 485.30664062 232.6875 C474.21217798 232.61221951 464.07548296 236.47064136 453.9375 240.625 C452.85114258 241.06666504 451.76478516 241.50833008 450.64550781 241.96337891 C409.7644932 258.7617376 369.86186532 283.26394768 338.9375 315.0625 C318.39551249 336.18272784 318.39551249 336.18272784 308.375 336.5 C301.65150989 336.37685916 297.11934076 334.29424555 292 330 C286.78078224 324.29974834 285.39565654 318.83602891 285.46875 311.26171875 C287.02817258 301.68732276 296.27570083 294.39834571 303 288 C303.85816818 287.39960403 304.71633636 286.79920807 305.60050964 286.18061829 C309.3851889 281.16387796 308.65600461 276.15753403 308.56762695 270.03979492 C308.56835709 268.72233276 308.56908722 267.40487061 308.56983948 266.04748535 C308.57127234 262.44218195 308.54190511 258.83771262 308.50696969 255.23260283 C308.47568372 251.46234745 308.47277371 247.69207231 308.46684265 243.92170715 C308.45131069 236.78537211 308.41029134 229.64942069 308.3600952 222.51325446 C308.3041813 214.38759165 308.27671015 206.26191038 308.25161803 198.13610303 C308.19937461 181.42384423 308.11144536 164.71197109 308 148 C307.34 148 306.68 148 306 148 C306.13810905 143.52055965 306.28677416 139.04153217 306.4375 134.5625 C306.49647461 132.6434082 306.49647461 132.6434082 306.55664062 130.68554688 C306.59853516 129.47060547 306.64042969 128.25566406 306.68359375 127.00390625 C306.72025146 125.87799072 306.75690918 124.7520752 306.79467773 123.59204102 C307 121 307 121 308 120 C308.07271741 117.64686445 308.08370868 115.29166332 308.0625 112.9375 C308.05347656 111.64714844 308.04445313 110.35679688 308.03515625 109.02734375 C308.02355469 108.02832031 308.01195312 107.02929688 308 106 C268.47805051 104.88477243 231.95944355 112.17023641 197 131 C196.33661621 131.35175293 195.67323242 131.70350586 194.98974609 132.06591797 C180.14084544 139.97182942 167.15338212 149.4699849 154.57373047 160.60986328 C153.15380325 161.86413967 151.7202647 163.10296611 150.28515625 164.33984375 C113.14611973 196.78516317 90.27982461 245.33976299 84.26171875 293.87109375 C83.8794008 299.90258735 84 305.95640156 84 312 C64.86 312 45.72 312 26 312 C26 313.65 26 315.3 26 317 C30.62 317 35.24 317 40 317 C40 317.66 40 318.32 40 319 C35.38 319 30.76 319 26 319 C25.74050036 330.51890054 26.28993755 341.60585625 28 353 C28.12358887 353.84240234 28.24717773 354.68480469 28.37451172 355.55273438 C35.39903361 402.31476375 52.67654411 446.67404153 82 484 C82.56847656 484.74894531 83.13695312 485.49789063 83.72265625 486.26953125 C85.45187571 488.5383653 87.21749429 490.77278669 89 493 C90.07701172 494.35738281 90.07701172 494.35738281 91.17578125 495.7421875 C102.91205228 510.0885468 116.18913426 523.81813659 131 535 C131.99644531 535.79019531 132.99289063 536.58039063 134.01953125 537.39453125 C142.0390527 543.73734395 150.38813812 549.49350576 159 555 C159.58974609 555.3801123 160.17949219 555.76022461 160.78710938 556.15185547 C175.27011835 565.41471221 191.00447771 572.74739959 207 579 C208.17949219 579.47953125 209.35898438 579.9590625 210.57421875 580.453125 C220.45907891 584.39032565 230.48133389 587.05813781 240.83203125 589.47705078 C243.49326888 590.11898445 246.11670596 590.87760919 248.75 591.625 C257.80405496 593.92776542 267.26649871 594.62449036 276.53320312 595.65869141 C279 596 279 596 280.88313293 596.51026917 C283.09813626 597.02270353 285.06530045 597.14696043 287.33666992 597.17700195 C288.1920636 597.18964584 289.04745728 597.20228973 289.92877197 597.21531677 C290.85333191 597.22289505 291.77789185 597.23047333 292.73046875 597.23828125 C294.18631378 597.25297203 294.18631378 597.25297203 295.67156982 597.26795959 C348.79345947 597.69193637 396.640705 588.93914259 444 564 C444.69915527 563.63712891 445.39831055 563.27425781 446.11865234 562.90039062 C464.68040903 553.2130961 481.33403839 541.06834807 497.23339844 527.49169922 C498.41050299 526.49776489 499.60147485 525.52002372 500.80566406 524.55908203 C502.23760457 523.4137807 503.6240248 522.21196577 505 521 C505 520.34 505 519.68 505 519 C505.87205078 518.61714844 505.87205078 518.61714844 506.76171875 518.2265625 C509.22815481 516.87497276 510.84842854 515.38307306 512.8125 513.375 C513.75029297 512.42753906 513.75029297 512.42753906 514.70703125 511.4609375 C517.8888268 508.04606323 520.94396843 504.52736393 524 501 C524.79990356 500.08420166 524.79990356 500.08420166 525.6159668 499.14990234 C548.56133132 472.71324034 566.4506546 442.03562758 578 409 C578.29390625 408.16339844 578.5878125 407.32679688 578.890625 406.46484375 C579.62305574 404.31819834 580.31572944 402.1624462 581 400 C581.30550781 399.07703125 581.61101563 398.1540625 581.92578125 397.203125 C584.29366062 389.85264233 586.10026987 382.46516236 587.69311523 374.91625977 C588.90804686 369.18390628 588.90804686 369.18390628 590 367 C597.39301629 335.69326063 597.15207064 298.46748778 591 267 C590.79068848 265.88866699 590.58137695 264.77733398 590.36572266 263.63232422 C587.65284063 249.45737166 584.36365322 235.59689351 579.6640625 221.94677734 C579.04270666 220.12519961 578.45747172 218.29141268 577.875 216.45703125 C576.27701672 211.43212288 574.53631918 206.73942358 572.04345703 202.09155273 C570.9754932 199.95087745 570.13541572 197.80237308 569.296875 195.5625 C566.76082888 189.15792882 563.53207246 183.17278437 560.25 177.125 C559.66734375 176.03058594 559.0846875 174.93617188 558.484375 173.80859375 C554.39770572 166.2357088 549.8834968 159.08179219 545 152 C544.55124512 151.33677734 544.10249023 150.67355469 543.64013672 149.99023438 C534.94702192 137.18087997 524.70457116 125.82323481 514.1875 114.5 C513.58977783 113.85369629 512.99205566 113.20739258 512.3762207 112.54150391 C508.15986682 108.05250836 503.67803285 104.00006569 499 100 C497.92792185 99.05147106 496.85750035 98.10106506 495.7890625 97.1484375 C477.28515853 80.83754572 456.71840213 67.38081403 434.48046875 56.71875 C431 55 431 55 427.73681641 53.05639648 C424.19672772 51.02334253 420.61238214 49.66542665 416.73046875 48.37890625 C416.05680267 48.15380875 415.3831366 47.92871124 414.6890564 47.6967926 C412.52460928 46.97673666 410.35652422 46.26863825 408.1875 45.5625 C407.44402313 45.31844421 406.70054626 45.07438843 405.93453979 44.82293701 C382.9709859 37.28610152 359.96859989 31.05292076 335.8125 28.6875 C335.03737061 28.61120361 334.26224121 28.53490723 333.46362305 28.45629883 C325.93086967 27.82427394 318.63051474 28 311 28 Z " fill="#EFEFF0" transform="translate(0,0)"/>
<path d="M0 0 C19.14 0 38.28 0 58 0 C58 0.99 58 1.98 58 3 C58.58659897 2.99777939 59.17319794 2.99555878 59.77757263 2.99327087 C65.86025384 2.9712179 71.94292377 2.95609336 78.02563477 2.94506836 C80.29842591 2.94002675 82.5712138 2.93319363 84.84399414 2.92456055 C88.10303551 2.91248739 91.36203417 2.90677013 94.62109375 2.90234375 C95.64400009 2.89718246 96.66690643 2.89202118 97.72080994 2.88670349 C98.66170975 2.88662796 99.60260956 2.88655243 100.57202148 2.88647461 C101.40475082 2.884254 102.23748016 2.88203339 103.09544373 2.87974548 C105 3 105 3 106 4 C106 5.65 106 7.3 106 9 C97.75 9 89.5 9 81 9 C81.495 10.485 81.495 10.485 82 12 C82.15664876 13.47832879 82.27145653 14.9613094 82.359375 16.4453125 C83.82726464 38.12192615 85.99482639 65.19302831 98 84 C98.66666667 86 99.33333333 88 100 90 C101.2657002 92.70244096 102.61744025 95.35568668 104 98 C110.88332428 96.24279364 116.31251211 92.03169881 122.09960938 88.08007812 C122.91365234 87.54447266 123.72769531 87.00886719 124.56640625 86.45703125 C125.29802979 85.96178955 126.02965332 85.46654785 126.78344727 84.95629883 C129.57816451 83.75055949 131.1295277 84.15604016 134 85 C133.75927734 86.84106445 133.75927734 86.84106445 133 89 C131.18994141 90.35620117 131.18994141 90.35620117 128.8515625 91.54296875 C128.01109375 91.97673828 127.170625 92.41050781 126.3046875 92.85742188 C125.42039062 93.29634766 124.53609375 93.73527344 123.625 94.1875 C122.7484375 94.63802734 121.871875 95.08855469 120.96875 95.55273438 C117.66910157 97.23535326 114.5182754 98.82724153 111 100 C111 100.66 111 101.32 111 102 C109.68 102.33 108.36 102.66 107 103 C109.67593231 108.78001379 112.83038684 113.76981071 116.609375 118.8984375 C118 121 118 121 118 123 C118.66 123 119.32 123 120 123 C121.2265625 124.43359375 121.2265625 124.43359375 122.625 126.4375 C125.62910309 130.60903919 128.96187867 134.35602688 132.4609375 138.1171875 C134 140 134 140 134 142 C134.99 142.33 135.98 142.66 137 143 C137 143.66 137 144.32 137 145 C137.99 145.33 138.98 145.66 140 146 C141.70180165 147.63077487 143.36363998 149.30356803 145 151 C146.84312021 152.72024553 148.69744918 154.428556 150.5625 156.125 C151.49191406 156.97320312 152.42132813 157.82140625 153.37890625 158.6953125 C155.8879577 160.97776303 155.8879577 160.97776303 158.33984375 162.6796875 C159.16162109 163.33324219 159.16162109 163.33324219 160 164 C160 164.66 160 165.32 160 166 C161.2684375 166.3403125 161.2684375 166.3403125 162.5625 166.6875 C166.04064152 168.01551767 168.40203968 169.59504078 171.2890625 171.87890625 C173.17587649 173.11524327 174.7985287 173.57220318 177 174 C177.309375 173.21625 177.61875 172.4325 177.9375 171.625 C179 169 179 169 180 167 C180.66 167 181.32 167 182 167 C182.23460937 166.34644531 182.46921875 165.69289063 182.7109375 165.01953125 C184.39755459 161.06875848 186.49426475 157.41295742 188.625 153.6875 C189.25535156 152.57665039 189.25535156 152.57665039 189.8984375 151.44335938 C190.92948495 149.62730989 191.96436046 147.81343467 193 146 C194.32 146.33 195.64 146.66 197 147 C196.41992503 150.83574572 195.30898951 153.55638404 193.3125 156.87109375 C192.77882812 157.77537109 192.24515625 158.67964844 191.6953125 159.61132812 C190.56682685 161.4925709 189.43662283 163.37278398 188.3046875 165.25195312 C184.45442195 171.69514704 184.45442195 171.69514704 183 179 C194.70452245 185.00809066 206.30164491 190.3440059 218.95703125 194.09375 C222.26913312 195.08015261 225.53739149 196.16468938 228.8046875 197.2890625 C235.91600417 199.59201559 242.92280849 200.9315671 250.3125 202.0625 C251.4557373 202.2387793 252.59897461 202.41505859 253.77685547 202.59667969 C263.17940695 203.99052857 272.50305594 204.75460093 282 205 C281.9278125 203.72769531 281.855625 202.45539063 281.78125 201.14453125 C281.09711484 188.41669058 280.88378694 175.74469907 281 163 C282.65 163 284.3 163 286 163 C286 176.86 286 190.72 286 205 C319.04939917 202.51651914 349.40782895 197.00037844 379.05200195 181.48876953 C383.81669384 179 383.81669384 179 386 179 C384.79798687 176.91621109 383.5952323 174.83285513 382.39160156 172.75 C381.37940561 170.99804719 380.36834 169.24544085 379.35839844 167.4921875 C376.29614132 162.18930285 373.16619244 156.94798836 369.828125 151.8125 C369 150 369 150 370 147 C372.0625 146.3125 372.0625 146.3125 374 146 C374.50789063 146.89460937 375.01578125 147.78921875 375.5390625 148.7109375 C376.23431251 149.93232724 376.92962976 151.15367871 377.625 152.375 C377.98601807 153.01115234 378.34703613 153.64730469 378.71899414 154.30273438 C380.877648 158.0907499 383.11720609 161.80785348 385.4375 165.5 C387.56129841 168.98786406 388.78103849 171.83973131 389 176 C393.78527393 173.40797662 398.03696349 170.55612328 402.30078125 167.171875 C404 166 404 166 406 166 C406 165.34 406 164.68 406 164 C407.57421875 162.88671875 407.57421875 162.88671875 409.6875 161.6875 C413.32877991 159.51945878 416.03935494 157.04523492 419 154 C419.99 153.67 420.98 153.34 422 153 C422 152.34 422 151.68 422 151 C422.66 151 423.32 151 424 151 C424 150.34 424 149.68 424 149 C424.66 149 425.32 149 426 149 C426 148.34 426 147.68 426 147 C427.49609375 145.5625 427.49609375 145.5625 429.4375 144 C432.15188238 141.85474956 432.15188238 141.85474956 434 139 C434.66 139 435.32 139 436 139 C436.26345215 138.41605469 436.5269043 137.83210937 436.79833984 137.23046875 C438.05181561 134.90382214 439.4351645 133.24848833 441.2265625 131.3125 C444.98498051 127.1049384 448.21510597 122.66799228 451.375 118 C451.93662842 117.17113281 452.49825684 116.34226562 453.0769043 115.48828125 C474.72732536 83.15962622 484.86930189 47.53166903 488 9 C478.1 9 468.2 9 458 9 C458 7.35 458 5.7 458 4 C467.47565732 3.93023842 476.95122511 3.87705666 486.42708397 3.84456348 C490.82794698 3.82896196 495.22863322 3.80782548 499.62939453 3.77368164 C503.88286685 3.74089015 508.13617001 3.7231056 512.38975906 3.71536827 C514.00593348 3.70986005 515.62209949 3.69910458 517.23820114 3.68280983 C525.88188802 3.59918845 533.85205091 3.67745074 542 7 C542 7.33 542 7.66 542 8 C540.54248309 8.17366159 539.08390329 8.3383984 537.625 8.5 C536.81289063 8.5928125 536.00078125 8.685625 535.1640625 8.78125 C530.77444979 9.0847294 526.3982026 9.03885529 522 9 C521.97494385 9.68102783 521.9498877 10.36205566 521.92407227 11.0637207 C521.80809048 14.14683755 521.68537384 17.22965046 521.5625 20.3125 C521.50352539 21.9202832 521.50352539 21.9202832 521.44335938 23.56054688 C521.38051758 25.10258789 521.38051758 25.10258789 521.31640625 26.67578125 C521.27974854 27.62364502 521.24309082 28.57150879 521.20532227 29.5480957 C521 32 521 32 520 35 C519.87079209 36.51891081 519.77087093 38.04038502 519.6875 39.5625 C518.11402813 57.48129154 512.40943007 75.55435799 504.97314453 91.86303711 C504.05882189 93.87083092 503.18418995 95.89031528 502.32421875 97.921875 C491.7702146 122.69017631 491.7702146 122.69017631 484 132 C483.34 132 482.68 132 482 132 C481.90332031 132.73089844 481.80664062 133.46179688 481.70703125 134.21484375 C480.90354737 137.37994874 479.73606227 139.04018028 477.6875 141.5625 C477.09324219 142.30628906 476.49898438 143.05007813 475.88671875 143.81640625 C474 146 474 146 471.95703125 147.96484375 C469.91905768 149.9310028 469.91905768 149.9310028 468.5703125 152.39453125 C466.67279488 155.54290003 464.38494165 158.00559442 461.875 160.6875 C458.55656201 164.07619876 458.55656201 164.07619876 456 168 C455.34 168 454.68 168 454 168 C454 168.66 454 169.32 454 170 C453.01 170 452.02 170 451 170 C451 170.66 451 171.32 451 172 C450.34 172 449.68 172 449 172 C448.76539063 172.56976563 448.53078125 173.13953125 448.2890625 173.7265625 C444.22145672 180.90033997 435.66864193 186.2806534 429 191 C428.21858643 191.5583252 428.21858643 191.5583252 427.42138672 192.12792969 C425.66054392 193.38362484 423.89387899 194.63065505 422.125 195.875 C421.55289795 196.28105469 420.9807959 196.68710937 420.39135742 197.10546875 C416.23171211 200 416.23171211 200 414 200 C414 200.66 414 201.32 414 202 C413.03578125 202.47050781 412.0715625 202.94101562 411.078125 203.42578125 C409.80197704 204.05447179 408.52594126 204.68339007 407.25 205.3125 C406.61578125 205.62123047 405.9815625 205.92996094 405.328125 206.24804688 C401.95432824 207.9173734 398.97074174 209.70113333 396 212 C393.67328135 213.01529541 391.3396553 214.01488198 389 215 C388.26265625 215.46664062 387.5253125 215.93328125 386.765625 216.4140625 C383.37992367 218.35558049 379.86492014 219.61801686 376.1875 220.875 C375.44628906 221.1325708 374.70507812 221.3901416 373.94140625 221.65551758 C367.50179491 223.87322695 361.01315421 225.92058927 354.5 227.91015625 C351.79873461 228.75128688 349.15521798 229.65443737 346.5 230.625 C339.86345425 232.85397267 332.89017992 233.86732323 326 235 C324.16308594 235.31324219 324.16308594 235.31324219 322.2890625 235.6328125 C309.89276943 237.47796304 297.50270774 237.17917893 285 237 C285 242.94 285 248.88 285 255 C272.81848842 256.50389032 261.14914914 255.40133043 249 254 C248.2359082 253.91266602 247.47181641 253.82533203 246.68457031 253.73535156 C225.43663417 251.13456492 204.41342411 244.22579504 184 238 C184 237.34 184 236.68 184 236 C182.6696875 235.8453125 182.6696875 235.8453125 181.3125 235.6875 C177.81678285 234.9619738 176.03633635 233.83278161 173 232 C170.2745707 230.67562351 167.50890696 229.44033698 164.75 228.1875 C159.28640589 225.66015456 154.15497949 223.07417796 149.2421875 219.56640625 C146.36620385 217.55722604 143.37408186 215.75427997 140.375 213.9375 C131.14988293 208.28130278 131.14988293 208.28130278 127 205 C127 204.34 127 203.68 127 203 C125.68 202.67 124.36 202.34 123 202 C123 201.34 123 200.68 123 200 C122.11828125 199.59587891 122.11828125 199.59587891 121.21875 199.18359375 C117.30808526 197.09744689 114.26706936 193.96426781 111 191 C109.57880859 189.73542969 109.57880859 189.73542969 108.12890625 188.4453125 C101.65271241 182.64600015 95.64216647 176.6305752 90 170 C89.27296875 169.14921875 88.5459375 168.2984375 87.796875 167.421875 C81.78591721 160.23394645 76.29690789 152.72202364 71 145 C70.60780273 144.42878418 70.21560547 143.85756836 69.81152344 143.26904297 C64.06300054 134.81519087 59.26862916 126.07241636 54.88476562 116.84179688 C54.11080277 115.23065565 53.30050724 113.63707081 52.484375 112.046875 C43.17359419 93.32299711 37.70076665 72.49626622 34 52 C33.76458496 50.71536865 33.76458496 50.71536865 33.52441406 49.40478516 C31.24295568 36.63597774 30.37720836 23.95515608 30 11 C27.26967727 11.28296619 24.54107852 11.57603882 21.8125 11.875 C21.04357422 11.95363281 20.27464844 12.03226562 19.48242188 12.11328125 C15.34219296 12.57528104 11.80766499 13.1839193 8 15 C7.67 14.67 7.34 14.34 7 14 C5.35 14.66 3.7 15.32 2 16 C1.67 18.64 1.34 21.28 1 24 C0.67 24 0.34 24 0 24 C0 18.39 0 12.78 0 7 C4.62 7 9.24 7 14 7 C14 6.34 14 5.68 14 5 C9.38 5 4.76 5 0 5 C0 3.35 0 1.7 0 0 Z " fill="#333640" transform="translate(26,312)"/>
<path d="M0 0 C0 16.17 0 32.34 0 49 C-4.310625 49.103125 -8.62125 49.20625 -13.0625 49.3125 C-66.4449787 51.04503672 -117.08792607 68.70121245 -159 102 C-159.83402344 102.65597168 -160.66804688 103.31194336 -161.52734375 103.98779297 C-168.48664845 109.55449532 -174.85306824 115.55014054 -181.125 121.875 C-182.04925781 122.79152344 -182.97351563 123.70804687 -183.92578125 124.65234375 C-192.45759619 133.20822587 -200.07975472 142.34876312 -207 152.25 C-207.50708496 152.97541992 -208.01416992 153.70083984 -208.53662109 154.44824219 C-230.77325154 186.58728638 -245.83715092 224.94707019 -249.26660156 264.01245117 C-249.9247782 270.9973897 -249.9247782 270.9973897 -252 274 C-254.76617563 275.38308781 -257.01018 275.11210196 -260.1015625 275.09765625 C-261.31328125 275.09443359 -262.525 275.09121094 -263.7734375 275.08789062 C-265.67996094 275.07532227 -265.67996094 275.07532227 -267.625 275.0625 C-268.90375 275.05798828 -270.1825 275.05347656 -271.5 275.04882812 C-274.66671292 275.03701203 -277.83333356 275.02053815 -281 275 C-280.12202196 213.3069054 -258.8119287 156.54362429 -221 108 C-220.26394531 107.04867187 -219.52789062 106.09734375 -218.76953125 105.1171875 C-208.75389864 92.52718027 -197.33835518 79.70340706 -184.75 69.625 C-180.55196182 66.25295154 -180.55196182 66.25295154 -176.41015625 62.8125 C-163.59668267 52.02220645 -149.55212794 43.22850251 -135 35 C-134.40993164 34.65904297 -133.81986328 34.31808594 -133.21191406 33.96679688 C-115.06051266 23.50243595 -95.16931596 15.58362036 -75 10 C-74.23123535 9.78150391 -73.4624707 9.56300781 -72.67041016 9.33789062 C-48.8419907 2.64059737 -24.72342957 0 0 0 Z " fill="#2B2D35" transform="translate(307,28)"/>
<path d="M0 0 C9.47565732 -0.06976158 18.95122511 -0.12294334 28.42708397 -0.15543652 C32.82794698 -0.17103804 37.22863322 -0.19217452 41.62939453 -0.22631836 C45.88286685 -0.25910985 50.13617001 -0.2768944 54.38975906 -0.28463173 C56.00593348 -0.29013995 57.62209949 -0.30089542 59.23820114 -0.31719017 C67.88188802 -0.40081155 75.85205091 -0.32254926 84 3 C84 3.33 84 3.66 84 4 C82.54248309 4.17366159 81.08390329 4.3383984 79.625 4.5 C78.40683594 4.63921875 78.40683594 4.63921875 77.1640625 4.78125 C72.77444979 5.0847294 68.3982026 5.03885529 64 5 C63.96241577 6.02154175 63.96241577 6.02154175 63.92407227 7.0637207 C63.80809048 10.14683755 63.68537384 13.22965046 63.5625 16.3125 C63.52318359 17.38435547 63.48386719 18.45621094 63.44335938 19.56054688 C63.40146484 20.58857422 63.35957031 21.61660156 63.31640625 22.67578125 C63.26141968 24.0975769 63.26141968 24.0975769 63.20532227 25.5480957 C63 28 63 28 62 31 C61.87079209 32.51891081 61.77087093 34.04038502 61.6875 35.5625 C60.11402813 53.48129154 54.40943007 71.55435799 46.97314453 87.86303711 C46.05882189 89.87083092 45.18418995 91.89031528 44.32421875 93.921875 C33.7702146 118.69017631 33.7702146 118.69017631 26 128 C25.34 128 24.68 128 24 128 C23.90332031 128.73089844 23.80664062 129.46179688 23.70703125 130.21484375 C22.90354737 133.37994874 21.73606227 135.04018028 19.6875 137.5625 C19.09324219 138.30628906 18.49898437 139.05007813 17.88671875 139.81640625 C16 142 16 142 13.95703125 143.96484375 C11.91905768 145.9310028 11.91905768 145.9310028 10.5703125 148.39453125 C8.67279488 151.54290003 6.38494165 154.00559442 3.875 156.6875 C0.55656201 160.07619876 0.55656201 160.07619876 -2 164 C-2.66 164 -3.32 164 -4 164 C-4 164.66 -4 165.32 -4 166 C-4.99 166 -5.98 166 -7 166 C-7 166.66 -7 167.32 -7 168 C-7.66 168 -8.32 168 -9 168 C-9.23460937 168.56976563 -9.46921875 169.13953125 -9.7109375 169.7265625 C-13.77854328 176.90033997 -22.33135807 182.2806534 -29 187 C-29.78141357 187.5583252 -29.78141357 187.5583252 -30.57861328 188.12792969 C-32.33945608 189.38362484 -34.10612101 190.63065505 -35.875 191.875 C-36.44710205 192.28105469 -37.0192041 192.68710937 -37.60864258 193.10546875 C-41.76828789 196 -41.76828789 196 -44 196 C-44 196.66 -44 197.32 -44 198 C-44.96421875 198.47050781 -45.9284375 198.94101562 -46.921875 199.42578125 C-48.19802296 200.05447179 -49.47405874 200.68339007 -50.75 201.3125 C-51.38421875 201.62123047 -52.0184375 201.92996094 -52.671875 202.24804688 C-56.04567176 203.9173734 -59.02925826 205.70113333 -62 208 C-64.32671865 209.01529541 -66.6603447 210.01488198 -69 211 C-69.73734375 211.46664062 -70.4746875 211.93328125 -71.234375 212.4140625 C-74.62007633 214.35558049 -78.13507986 215.61801686 -81.8125 216.875 C-82.55371094 217.1325708 -83.29492188 217.3901416 -84.05859375 217.65551758 C-90.49820509 219.87322695 -96.98684579 221.92058927 -103.5 223.91015625 C-106.20126539 224.75128688 -108.84478202 225.65443737 -111.5 226.625 C-118.13591097 228.85375947 -125.10991017 229.86973379 -132 231 C-133.85431641 231.31324219 -133.85431641 231.31324219 -135.74609375 231.6328125 C-147.84772559 233.42098287 -159.7797774 233.13886617 -172 233 C-172 222.44 -172 211.88 -172 201 C-166.6478125 200.5978125 -166.6478125 200.5978125 -161.1875 200.1875 C-132.12547616 197.80475303 -104.89980524 191.06831124 -78.94799805 177.48876953 C-74.18330616 175 -74.18330616 175 -72 175 C-73.20201313 172.91621109 -74.4047677 170.83285513 -75.60839844 168.75 C-76.62059439 166.99804719 -77.63166 165.24544085 -78.64160156 163.4921875 C-81.70385868 158.18930285 -84.83380756 152.94798836 -88.171875 147.8125 C-89 146 -89 146 -88 143 C-85.9375 142.3125 -85.9375 142.3125 -84 142 C-83.49210937 142.89460937 -82.98421875 143.78921875 -82.4609375 144.7109375 C-81.76568749 145.93232724 -81.07037024 147.15367871 -80.375 148.375 C-80.01398193 149.01115234 -79.65296387 149.64730469 -79.28100586 150.30273438 C-77.122352 154.0907499 -74.88279391 157.80785348 -72.5625 161.5 C-70.43870159 164.98786406 -69.21896151 167.83973131 -69 172 C-64.21472607 169.40797662 -59.96303651 166.55612328 -55.69921875 163.171875 C-54 162 -54 162 -52 162 C-52 161.34 -52 160.68 -52 160 C-50.42578125 158.88671875 -50.42578125 158.88671875 -48.3125 157.6875 C-44.67122009 155.51945878 -41.96064506 153.04523492 -39 150 C-38.01 149.67 -37.02 149.34 -36 149 C-36 148.34 -36 147.68 -36 147 C-35.34 147 -34.68 147 -34 147 C-34 146.34 -34 145.68 -34 145 C-33.34 145 -32.68 145 -32 145 C-32 144.34 -32 143.68 -32 143 C-30.50390625 141.5625 -30.50390625 141.5625 -28.5625 140 C-25.84811762 137.85474956 -25.84811762 137.85474956 -24 135 C-23.34 135 -22.68 135 -22 135 C-21.60482178 134.12408203 -21.60482178 134.12408203 -21.20166016 133.23046875 C-19.94818439 130.90382214 -18.5648355 129.24848833 -16.7734375 127.3125 C-13.01501949 123.1049384 -9.78489403 118.66799228 -6.625 114 C-6.06337158 113.17113281 -5.50174316 112.34226562 -4.9230957 111.48828125 C16.72732536 79.15962622 26.86930189 43.53166903 30 5 C20.1 5 10.2 5 0 5 C0 3.35 0 1.7 0 0 Z " fill="#262933" transform="translate(484,316)"/>
<path d="M0 0 C-0.49558795 4.35354956 -1.80087599 6.30066031 -4.9375 9.3125 C-6.00291016 10.35857422 -6.00291016 10.35857422 -7.08984375 11.42578125 C-9 13 -9 13 -11 13 C-11 13.66 -11 14.32 -11 15 C-12.9639171 16.68467264 -14.93808704 18.25509766 -17 19.8125 C-18.29267996 20.8072784 -19.58430633 21.80342705 -20.875 22.80078125 C-21.89207031 23.58509521 -21.89207031 23.58509521 -22.9296875 24.38525391 C-26.32972696 27.0371243 -29.66307116 29.76945275 -33 32.5 C-42.8819393 40.5611126 -52.91393906 48.4171185 -63.04248047 56.1652832 C-67.18120301 59.34254099 -71.25108796 62.59976997 -75.3125 65.875 C-80.46408595 70.02594211 -85.68970342 74.05430668 -91 78 C-96.86238231 82.35606591 -102.60105415 86.83633059 -108.28076172 91.42749023 C-112.99655422 95.22841652 -117.79563755 98.90737998 -122.625 102.5625 C-128.56433721 107.06238643 -134.34226008 111.70043828 -139.97900391 116.57446289 C-146.27088088 122.01325671 -146.27088088 122.01325671 -150.4375 121.9375 C-154 121 -154 121 -156.4375 119 C-158.52523754 114.99154393 -158.98909952 111.42912947 -158 107 C-155.11828071 101.59045677 -151.35109404 98.66000459 -146.4375 95.25 C-145.28447388 94.43341919 -145.28447388 94.43341919 -144.1081543 93.6003418 C-133.55612587 86.18915285 -122.77423327 79.10483433 -112.01757812 71.99560547 C-108.19224192 69.46580788 -104.37627656 66.92217433 -100.5625 64.375 C-63.1328125 39.421875 -63.1328125 39.421875 -61.21588135 38.14396667 C-59.94934548 37.29957897 -58.68286577 36.45510704 -57.41644287 35.61054993 C-54.57612257 33.71651446 -51.73492863 31.82384788 -48.89160156 29.93432617 C-40.52173872 24.36902106 -32.2103673 18.71955236 -23.90722656 13.05541992 C-19.94799242 10.35541589 -15.97891633 7.67092653 -12 5 C-11.17564453 4.44103027 -10.35128906 3.88206055 -9.50195312 3.30615234 C-5.9738692 0.98646164 -4.33098889 0 0 0 Z " fill="#2B2C34" transform="translate(458,202)"/>
<path d="M0 0 C19.14 0 38.28 0 58 0 C58 0.99 58 1.98 58 3 C58.58659897 2.99777939 59.17319794 2.99555878 59.77757263 2.99327087 C65.86025384 2.9712179 71.94292377 2.95609336 78.02563477 2.94506836 C80.29842591 2.94002675 82.5712138 2.93319363 84.84399414 2.92456055 C88.10303551 2.91248739 91.36203417 2.90677013 94.62109375 2.90234375 C95.64400009 2.89718246 96.66690643 2.89202118 97.72080994 2.88670349 C98.66170975 2.88662796 99.60260956 2.88655243 100.57202148 2.88647461 C101.40475082 2.884254 102.23748016 2.88203339 103.09544373 2.87974548 C105 3 105 3 106 4 C106.04063832 5.66617115 106.042721 7.33388095 106 9 C86.50592649 9.91023685 67.01866707 10.27870128 47.50671387 10.52606201 C44.11168881 10.56913997 40.71670498 10.61380051 37.32176208 10.66296387 C34.81193599 10.69904651 32.3020555 10.73159371 29.79212952 10.7598877 C23.82548644 10.84739948 17.95343887 11.09526748 12.02394104 11.78160095 C9.46696733 12.05751839 6.94517195 12.09921674 4.375 12.0625 C3.11816406 12.04896484 3.11816406 12.04896484 1.8359375 12.03515625 C1.23007812 12.02355469 0.62421875 12.01195312 0 12 C0 10.35 0 8.7 0 7 C4.62 7 9.24 7 14 7 C14 6.34 14 5.68 14 5 C9.38 5 4.76 5 0 5 C0 3.35 0 1.7 0 0 Z " fill="#3B3C43" transform="translate(26,312)"/>
<path d="M0 0 C9.47565732 -0.06976158 18.95122511 -0.12294334 28.42708397 -0.15543652 C32.82794698 -0.17103804 37.22863322 -0.19217452 41.62939453 -0.22631836 C45.88286685 -0.25910985 50.13617001 -0.2768944 54.38975906 -0.28463173 C56.00593348 -0.29013995 57.62209949 -0.30089542 59.23820114 -0.31719017 C67.88188802 -0.40081155 75.85205091 -0.32254926 84 3 C84 3.33 84 3.66 84 4 C74.93789479 5.13966423 65.94983652 5.1282873 56.8359375 5.09765625 C55.19113203 5.09578765 53.546326 5.09436584 51.90151978 5.09336853 C47.60425234 5.08957813 43.30701952 5.07977814 39.00976562 5.06866455 C34.61198393 5.05837508 30.21419655 5.05385487 25.81640625 5.04882812 C17.21092174 5.03815224 8.60546519 5.02111835 0 5 C0 3.35 0 1.7 0 0 Z " fill="#828490" transform="translate(484,316)"/>
<path d="M0 0 C1.65 0 3.3 0 5 0 C5.02337376 9.33752463 5.04104071 18.67503888 5.05181217 28.01258659 C5.05698705 32.35036136 5.06398409 36.68811582 5.07543945 41.02587891 C5.08646334 45.22750161 5.09231722 49.42910504 5.09487724 53.63074112 C5.09669695 55.21795072 5.10024821 56.80515951 5.10573006 58.39236069 C5.14292731 69.62968245 4.73020194 80.78632131 4 92 C3.01 92 2.02 92 1 92 C0.86779371 83.10546079 0.73730182 74.21089841 0.60884857 65.31630421 C0.54911681 61.18375757 0.48884976 57.05122036 0.42724609 52.91870117 C0.1646514 35.27856932 -0.09398996 17.64269965 0 0 Z " fill="#777A85" transform="translate(307,475)"/>
<path d="M0 0 C1.4177429 0.00374108 2.83548843 0.00658286 4.25323486 0.00857544 C7.94225501 0.01612589 11.63111174 0.03569788 15.32006836 0.0579834 C19.10137727 0.07862953 22.88271319 0.08761683 26.6640625 0.09765625 C34.05215696 0.1189541 41.44011788 0.15298288 48.828125 0.1953125 C48.828125 1.8453125 48.828125 3.4953125 48.828125 5.1953125 C22.098125 5.1953125 -4.631875 5.1953125 -32.171875 5.1953125 C-32.171875 4.8653125 -32.171875 4.5353125 -32.171875 4.1953125 C-30.521875 4.1953125 -28.871875 4.1953125 -27.171875 4.1953125 C-27.171875 3.5353125 -27.171875 2.8753125 -27.171875 2.1953125 C-18.06404158 0.32013906 -9.27478757 -0.07303594 0 0 Z " fill="#C3C5D0" transform="translate(83.171875,315.8046875)"/>
<path d="M0 0 C13.86 0 27.72 0 42 0 C42 0.33 42 0.66 42 1 C36.06 1.495 36.06 1.495 30 2 C30 2.66 30 3.32 30 4 C46.83 4.33 63.66 4.66 81 5 C81 5.33 81 5.66 81 6 C79.8869902 6.0154612 79.8869902 6.0154612 78.75149536 6.03123474 C71.72022433 6.12967079 64.68902825 6.23224569 57.6578846 6.33933926 C54.04408641 6.39423966 50.43027983 6.44760251 46.81640625 6.49731445 C43.32149947 6.54544877 39.82667787 6.59780089 36.33187485 6.65294075 C34.36575146 6.68290133 32.39956489 6.7086197 30.43338013 6.73423767 C24.24421945 6.8353791 18.14356933 7.0660718 11.99304199 7.78283691 C9.44668 8.06029009 6.93468411 8.09906692 4.375 8.0625 C3.11816406 8.04896484 3.11816406 8.04896484 1.8359375 8.03515625 C1.23007812 8.02355469 0.62421875 8.01195312 0 8 C0 6.35 0 4.7 0 3 C4.62 3 9.24 3 14 3 C14 2.34 14 1.68 14 1 C9.38 1 4.76 1 0 1 C0 0.67 0 0.34 0 0 Z " fill="#74757E" transform="translate(26,316)"/>
<path d="M0 0 C3.48687743 1.16229248 3.66529115 1.66014442 5.33984375 4.75390625 C5.76330078 5.52669922 6.18675781 6.29949219 6.62304688 7.09570312 C7.05681641 7.90974609 7.49058594 8.72378906 7.9375 9.5625 C8.36740234 10.34947266 8.79730469 11.13644531 9.24023438 11.94726562 C10.5122748 14.28866932 11.7587018 16.64217967 13 19 C13.39848145 19.73718262 13.79696289 20.47436523 14.20751953 21.23388672 C14.75641846 22.27633545 14.75641846 22.27633545 15.31640625 23.33984375 C15.6419751 23.95077881 15.96754395 24.56171387 16.30297852 25.19116211 C17 27 17 27 17 31 C14.70385742 30.80957031 14.70385742 30.80957031 12 30 C10.27075195 27.85449219 10.27075195 27.85449219 8.73828125 25.046875 C8.17689453 24.03496094 7.61550781 23.02304687 7.03710938 21.98046875 C6.46798828 20.91441406 5.89886719 19.84835937 5.3125 18.75 C4.73177734 17.69941406 4.15105469 16.64882813 3.55273438 15.56640625 C1.11208185 11.11397888 -1.19176846 6.75097647 -3 2 C-2.01 1.34 -1.02 0.68 0 0 Z " fill="#575965" transform="translate(398,458)"/>
<path d="M0 0 C0.66 0 1.32 0 2 0 C3.69318974 23.19065236 3.82627845 46.81278606 2 70 C1.34 70 0.68 70 0 70 C0 46.9 0 23.8 0 0 Z " fill="#90939E" transform="translate(309,497)"/>
<path d="M0 0 C1.4177429 0.00374108 2.83548843 0.00658286 4.25323486 0.00857544 C7.94225501 0.01612589 11.63111174 0.03569788 15.32006836 0.0579834 C19.10137727 0.07862953 22.88271319 0.08761683 26.6640625 0.09765625 C34.05215696 0.1189541 41.44011788 0.15298288 48.828125 0.1953125 C48.828125 0.5253125 48.828125 0.8553125 48.828125 1.1953125 C48.27990585 1.20339935 47.73168671 1.21148621 47.16685486 1.21981812 C41.43986563 1.30614886 35.71321122 1.40566353 29.98657227 1.51269531 C27.85186403 1.55088156 25.71709371 1.58575218 23.58227539 1.6171875 C20.50644814 1.66306327 17.4310444 1.72102044 14.35546875 1.78125 C13.40727768 1.79280121 12.45908661 1.80435242 11.48216248 1.81625366 C6.20537385 1.93269919 1.84246567 2.56460671 -3.171875 4.1953125 C-5.70646798 4.47693394 -8.25040929 4.68252778 -10.796875 4.8203125 C-11.82651367 4.87723267 -11.82651367 4.87723267 -12.87695312 4.93530273 C-19.30788638 5.26263902 -25.73387461 5.29452826 -32.171875 5.1953125 C-32.171875 4.8653125 -32.171875 4.5353125 -32.171875 4.1953125 C-30.521875 4.1953125 -28.871875 4.1953125 -27.171875 4.1953125 C-27.171875 3.5353125 -27.171875 2.8753125 -27.171875 2.1953125 C-18.06404158 0.32013906 -9.27478757 -0.07303594 0 0 Z " fill="#B4B6C2" transform="translate(83.171875,315.8046875)"/>
<path d="M0 0 C14.52 0 29.04 0 44 0 C44 0.33 44 0.66 44 1 C41.36 1.33 38.72 1.66 36 2 C36 2.33 36 2.66 36 3 C31.55852431 3.85916096 27.37230176 4.11697565 22.8515625 4.09765625 C21.86547501 4.09553383 21.86547501 4.09553383 20.85946655 4.09336853 C18.78126269 4.08781762 16.70317073 4.07527465 14.625 4.0625 C13.20703282 4.05747864 11.78906393 4.05291685 10.37109375 4.04882812 C6.91402678 4.03786437 3.45702433 4.02063421 0 4 C0 2.68 0 1.36 0 0 Z " fill="#9A9CA8" transform="translate(484,317)"/>
<path d="M0 0 C6.75827592 0.329672 11.26100081 3.14467942 16.875 6.75 C17.74125 7.2759375 18.6075 7.801875 19.5 8.34375 C20.32242187 8.86453125 21.14484375 9.3853125 21.9921875 9.921875 C22.73839355 10.39206055 23.48459961 10.86224609 24.25341797 11.34667969 C26.46810962 13.44311411 26.67795416 15.02154862 27 18 C22.52929643 17.42874343 19.53334291 15.71135873 15.75 13.3125 C15.18514893 12.95454346 14.62029785 12.59658691 14.03833008 12.2277832 C12.35526817 11.15752478 10.6775632 10.0788569 9 9 C8.06027344 8.41992188 7.12054688 7.83984375 6.15234375 7.2421875 C5.33894531 6.72914063 4.52554687 6.21609375 3.6875 5.6875 C2.96949219 5.23761719 2.25148438 4.78773438 1.51171875 4.32421875 C1.01285156 3.88722656 0.51398438 3.45023437 0 3 C0 2.01 0 1.02 0 0 Z " fill="#8A8C98" transform="translate(457,397)"/>
<path d="M0 0 C0.763125 0.20625 1.52625 0.4125 2.3125 0.625 C2.06518555 2.47045898 2.06518555 2.47045898 1.3125 4.625 C-0.44995117 5.94946289 -0.44995117 5.94946289 -2.73046875 7.09765625 C-3.55740234 7.52240234 -4.38433594 7.94714844 -5.23632812 8.38476562 C-6.10708984 8.81466797 -6.97785156 9.24457031 -7.875 9.6875 C-8.72642578 10.12126953 -9.57785156 10.55503906 -10.45507812 11.00195312 C-12.1118371 11.84378657 -13.77303464 12.67695297 -15.43896484 13.50048828 C-17.35191353 14.45717033 -19.23618075 15.4708587 -21.11328125 16.49609375 C-23.6875 17.625 -23.6875 17.625 -26.6875 16.625 C-25.47090964 12.97522893 -24.56486228 12.66887321 -21.3203125 10.77734375 C-20.43472656 10.25462891 -19.54914063 9.73191406 -18.63671875 9.19335938 C-17.23873047 8.38608398 -17.23873047 8.38608398 -15.8125 7.5625 C-13.98153146 6.4886893 -12.15079254 5.41448696 -10.3203125 4.33984375 C-9.50449707 3.86667725 -8.68868164 3.39351074 -7.84814453 2.90600586 C-2.38527304 -0.3328288 -2.38527304 -0.3328288 0 0 Z " fill="#ABAEB7" transform="translate(157.6875,396.375)"/>
<path d="M0 0 C4.11638186 0.48486229 7.50232081 2.87035697 11 4.9375 C16.41625668 8.1228787 16.41625668 8.1228787 22 11 C21.67 12.32 21.34 13.64 21 15 C15.97407567 14.41628044 12.08515633 12.12407618 7.75 9.6875 C7.0178125 9.29626953 6.285625 8.90503906 5.53125 8.50195312 C4.83515625 8.11330078 4.1390625 7.72464844 3.421875 7.32421875 C2.78862305 6.97447998 2.15537109 6.62474121 1.50292969 6.2644043 C-0.41721491 4.649 -0.71314914 3.45921379 -1 1 C-0.67 0.67 -0.34 0.34 0 0 Z " fill="#B6B9C2" transform="translate(135,216)"/>
<path d="M0 0 C1.32 0.33 2.64 0.66 4 1 C3.49844814 6.32498673 0.65564273 10.35205395 -2.0625 14.8125 C-2.53494141 15.60076172 -3.00738281 16.38902344 -3.49414062 17.20117188 C-4.65631315 19.13812608 -5.82504417 21.07078295 -7 23 C-7.99 22.01 -8.98 21.02 -10 20 C-8.56347895 15.08558588 -6.45840385 10.99761642 -3.875 6.625 C-3.50246094 5.98433594 -3.12992188 5.34367187 -2.74609375 4.68359375 C-1.83565998 3.11951523 -0.91851809 1.55934466 0 0 Z " fill="#A6A9B2" transform="translate(219,458)"/>
<path d="M0 0 C3.0200989 2.09169813 4.15943723 4.60314986 5.859375 7.8359375 C6.77976563 9.54910156 6.77976563 9.54910156 7.71875 11.296875 C9.109375 14.4609375 9.109375 14.4609375 9.109375 18.4609375 C6.87890625 18.390625 6.87890625 18.390625 4.109375 17.4609375 C2.41879674 15.15372598 1.11295056 13.08822917 -0.203125 10.5859375 C-0.56212891 9.94785156 -0.92113281 9.30976563 -1.29101562 8.65234375 C-2.88726221 5.73957379 -3.890625 3.82882337 -3.890625 0.4609375 C-1.890625 -0.5390625 -1.890625 -0.5390625 0 0 Z " fill="#AAACB6" transform="translate(210.890625,148.5390625)"/>
<path d="M0 0 C4.22363094 1.40787698 5.02369695 3.83028893 7.05859375 7.6328125 C8.29409947 10.73951983 8.04734498 12.85796506 7 16 C6.01 16 5.02 16 4 16 C2.140625 13.48046875 2.140625 13.48046875 0.25 10.1875 C-0.70132812 8.56908203 -0.70132812 8.56908203 -1.671875 6.91796875 C-3 4 -3 4 -2 1 C-1.34 0.67 -0.68 0.34 0 0 Z " fill="#8D8F9A" transform="translate(398,458)"/>
<path d="M0 0 C6.96327638 -0.33693273 12.43345544 0.6969113 19 3 C19 3.33 19 3.66 19 4 C11.97195301 4.85373239 5.07721931 5.12109311 -2 5 C-0.68 4.34 0.64 3.68 2 3 C1.34 2.67 0.68 2.34 0 2 C0 1.34 0 0.68 0 0 Z " fill="#585A66" transform="translate(549,316)"/>
<path d="M0 0 C-3.37384676 2.24923117 -4.90303535 2.30189703 -8.875 2.5 C-13.0299053 2.70826593 -16.20553268 3.26378617 -20 5 C-20.33 4.67 -20.66 4.34 -21 4 C-22.65 4.66 -24.3 5.32 -26 6 C-26.33 8.64 -26.66 11.28 -27 14 C-27.33 14 -27.66 14 -28 14 C-28 10.04 -28 6.08 -28 2 C-24.83379996 1.66162748 -21.66715902 1.32917102 -18.5 1 C-17.613125 0.90460938 -16.72625 0.80921875 -15.8125 0.7109375 C-10.50765526 0.16485054 -5.33262848 -0.0996753 0 0 Z " fill="#45464F" transform="translate(54,322)"/>
<path d="M0 0 C0.99 0.66 1.98 1.32 3 2 C2.49287967 5.71888239 1.88391785 8.73454239 0 12 C-1.32 11.67 -2.64 11.34 -4 11 C-4.6875 9.3125 -4.6875 9.3125 -5 7 C-3.6875 4.25 -3.6875 4.25 -2 2 C-1.34 2 -0.68 2 0 2 C0 1.34 0 0.68 0 0 Z " fill="#42454E" transform="translate(208,477)"/>
<path d="M0 0 C0.99 0 1.98 0 3 0 C3 6.27 3 12.54 3 19 C2.01 19 1.02 19 0 19 C0 12.73 0 6.46 0 0 Z " fill="#A6A8B4" transform="translate(308,476)"/>
<path d="M0 0 C1.47668858 0.0133035 2.95331108 0.03716415 4.4296875 0.0703125 C5.18378906 0.07933594 5.93789063 0.08835937 6.71484375 0.09765625 C8.57826004 0.1212438 10.44151343 0.15711531 12.3046875 0.1953125 C12.3046875 0.5253125 12.3046875 0.8553125 12.3046875 1.1953125 C9.6646875 1.5253125 7.0246875 1.8553125 4.3046875 2.1953125 C4.3046875 2.5253125 4.3046875 2.8553125 4.3046875 3.1953125 C0.30377346 3.94515955 -3.46280767 4.3148421 -7.53125 4.29296875 C-8.59472656 4.28974609 -9.65820312 4.28652344 -10.75390625 4.28320312 C-11.84832031 4.27482422 -12.94273437 4.26644531 -14.0703125 4.2578125 C-15.18792969 4.25330078 -16.30554688 4.24878906 -17.45703125 4.24414062 C-20.20318054 4.23240494 -22.94921836 4.21598613 -25.6953125 4.1953125 C-25.6953125 3.8653125 -25.6953125 3.5353125 -25.6953125 3.1953125 C-25.09992676 3.17549316 -24.50454102 3.15567383 -23.89111328 3.13525391 C-21.20039097 3.04015124 -18.51046102 2.93041408 -15.8203125 2.8203125 C-14.88316406 2.789375 -13.94601562 2.7584375 -12.98046875 2.7265625 C-11.63662109 2.66855469 -11.63662109 2.66855469 -10.265625 2.609375 C-9.43820801 2.5779541 -8.61079102 2.5465332 -7.75830078 2.51416016 C-4.17564212 1.960438 -4.14172161 0.21890706 0 0 Z " fill="#9395A1" transform="translate(515.6953125,316.8046875)"/>
<path d="M0 0 C8.68517024 0.50645534 17.35209459 1.02295299 26 2 C26 2.66 26 3.32 26 4 C16.84755529 4.30659554 8.65203245 4.49409003 0 1 C0 0.67 0 0.34 0 0 Z " fill="#282A36" transform="translate(558,316)"/>
<path d="M0 0 C0 0.33 0 0.66 0 1 C-3.3 1.33 -6.6 1.66 -10 2 C-10 2.33 -10 2.66 -10 3 C-11.39025391 3.09087891 -11.39025391 3.09087891 -12.80859375 3.18359375 C-14.00613281 3.26738281 -15.20367187 3.35117187 -16.4375 3.4375 C-17.63246094 3.51871094 -18.82742187 3.59992188 -20.05859375 3.68359375 C-22.88570244 3.67656114 -22.88570244 3.67656114 -24 5 C-26.67058851 5.14115161 -29.32432238 5.04247107 -32 5 C-32 4.67 -32 4.34 -32 4 C-30.35 4 -28.7 4 -27 4 C-27 3.34 -27 2.68 -27 2 C-17.86970027 0.09572892 -9.28145408 -0.22823248 0 0 Z " fill="#9A9BA5" transform="translate(83,316)"/>
<path d="M0 0 C8.00938233 0.77013292 8.00938233 0.77013292 11 4 C11 5.32 11 6.64 11 8 C6.4926374 7.46972205 3.5460927 5.80388725 0 3 C0 2.01 0 1.02 0 0 Z " fill="#8D8F9B" transform="translate(473,407)"/>
<path d="M0 0 C0 0.66 0 1.32 0 2 C-6.69613196 2.797837 -13.25766581 3.12910853 -20 3 C-20 2.01 -20 1.02 -20 0 C-17.41703983 -0.19522373 -14.83395921 -0.38144403 -12.25 -0.5625 C-11.52039062 -0.61857422 -10.79078125 -0.67464844 -10.0390625 -0.73242188 C-6.45046349 -0.97709908 -3.44972775 -0.99666259 0 0 Z " fill="#85868F" transform="translate(46,321)"/>
<path d="M0 0 C0.99 0.33 1.98 0.66 3 1 C-2.28 6.28 -7.56 11.56 -13 17 C-13.33 16.01 -13.66 15.02 -14 14 C-9.38 9.38 -4.76 4.76 0 0 Z " fill="#23242B" transform="translate(349,305)"/>
<path d="M0 0 C0.66 0.33 1.32 0.66 2 1 C-2.09433467 5.27720818 -5.82196284 9.06111405 -11 12 C-11.845625 12.9075 -12.69125 13.815 -13.5625 14.75 C-14.7690625 15.86375 -14.7690625 15.86375 -16 17 C-18.15234375 16.640625 -18.15234375 16.640625 -20 16 C-17.41768612 13.89457973 -14.83396996 11.79088731 -12.25 9.6875 C-11.15558594 8.79514648 -11.15558594 8.79514648 -10.0390625 7.88476562 C-8.97558594 7.01948242 -8.97558594 7.01948242 -7.890625 6.13671875 C-7.24125977 5.60780029 -6.59189453 5.07888184 -5.92285156 4.53393555 C-3.97720537 2.98181581 -1.9984569 1.48329048 0 0 Z " fill="#C8CACE" transform="translate(396,256)"/>
<path d="M0 0 C3.63 0 7.26 0 11 0 C11 0.66 11 1.32 11 2 C8.14493951 2.95168683 6.09062718 3.1900946 3.11328125 3.31640625 C2.17548828 3.35830078 1.23769531 3.40019531 0.27148438 3.44335938 C-0.70498047 3.48267578 -1.68144531 3.52199219 -2.6875 3.5625 C-3.67556641 3.60568359 -4.66363281 3.64886719 -5.68164062 3.69335938 C-8.12095546 3.79941654 -10.56037113 3.90147714 -13 4 C-12.67 3.34 -12.34 2.68 -12 2 C-9.27734375 1.5859375 -9.27734375 1.5859375 -5.9375 1.375 C-4.83277344 1.30023438 -3.72804688 1.22546875 -2.58984375 1.1484375 C-1.73519531 1.09945313 -0.88054687 1.05046875 0 1 C0 0.67 0 0.34 0 0 Z " fill="#B0B0BA" transform="translate(72,317)"/>
<path d="M0 0 C3.66881155 0.70554068 6.70450534 2.27735506 10 4 C9.01 4.33 8.02 4.66 7 5 C7 5.99 7 6.98 7 8 C4.0280615 6.87548273 1.66559313 5.77706209 -1 4 C-0.67 2.68 -0.34 1.36 0 0 Z " fill="#A2A5B0" transform="translate(135,216)"/>
<path d="M0 0 C0.66 0.33 1.32 0.66 2 1 C0.08743854 3.10802765 -1.82980255 5.21144674 -3.75 7.3125 C-4.28882812 7.90740234 -4.82765625 8.50230469 -5.3828125 9.11523438 C-8.08140479 12.06064914 -10.6628514 14.75633456 -14 17 C-14.66 16.67 -15.32 16.34 -16 16 C-10.72 10.72 -5.44 5.44 0 0 Z " fill="#505156" transform="translate(117,102)"/>
<path d="M0 0 C3.375 0.25 3.375 0.25 7 1 C8.4375 3.0625 8.4375 3.0625 9 5 C6.75 5.6875 6.75 5.6875 4 6 C1.6875 4.75 1.6875 4.75 0 3 C0 2.01 0 1.02 0 0 Z " fill="#9597A3" transform="translate(457,397)"/>
<path d="M0 0 C1.03898438 0.26554688 2.07796875 0.53109375 3.1484375 0.8046875 C10.73270717 2.7298692 18.29852295 4.59299939 26 6 C24.52734375 7.14453125 24.52734375 7.14453125 22 8 C19.08953991 7.54589113 16.3531044 6.61452401 13.5625 5.6875 C12.06438136 5.21041673 10.56569587 4.73510923 9.06640625 4.26171875 C8.01477295 3.92599854 8.01477295 3.92599854 6.94189453 3.58349609 C4.65202257 2.89544053 2.35696131 2.39829366 0 2 C0 1.34 0 0.68 0 0 Z " fill="#BEBFC5" transform="translate(229,586)"/>
<path d="M0 0 C0.33 0.66 0.66 1.32 1 2 C-8.75624462 13.416882 -8.75624462 13.416882 -13 17 C-13.66 17 -14.32 17 -15 17 C-15 16.34 -15 15.68 -15 15 C-13.49609375 13.5546875 -13.49609375 13.5546875 -11.4375 11.875 C-7.17201531 8.26340423 -3.56689436 4.29141978 0 0 Z " fill="#CECDD6" transform="translate(520,504)"/>
<path d="M0 0 C0.33 0.66 0.66 1.32 1 2 C-1.074247 7.14012963 -3.82268055 12.46097221 -7 17 C-7.66 17 -8.32 17 -9 17 C-7.68925635 12.53817564 -5.92933989 9.00381243 -3.375 5.125 C-2.74335937 4.15820312 -2.11171875 3.19140625 -1.4609375 2.1953125 C-0.73777344 1.10863281 -0.73777344 1.10863281 0 0 Z " fill="#35353D" transform="translate(117,204)"/>
<path d="M0 0 C1.17246771 4.09902098 1.07076062 7.75436258 1 12 C0.01 12.33 -0.98 12.66 -2 13 C-1.67 14.65 -1.34 16.3 -1 18 C-1.66 18 -2.32 18 -3 18 C-3.33 18.66 -3.66 19.32 -4 20 C-3.42978625 13.04339229 -1.98697306 6.68572695 0 0 Z " fill="#5A5A5F" transform="translate(36,232)"/>
<path d="M0 0 C-4.33212645 4.33212645 -9.03993271 5.50575052 -15 6 C-16.34034275 5.69607534 -17.67551367 5.3669126 -19 5 C-16.21142 3.96995707 -13.41969712 2.95069003 -10.625 1.9375 C-9.8309375 1.64294922 -9.036875 1.34839844 -8.21875 1.04492188 C-7.45820313 0.77099609 -6.69765625 0.49707031 -5.9140625 0.21484375 C-5.2123291 -0.04176025 -4.5105957 -0.29836426 -3.78759766 -0.56274414 C-2 -1 -2 -1 0 0 Z " fill="#B3B3BA" transform="translate(416,578)"/>
<path d="M0 0 C4.62 0 9.24 0 14 0 C11 3 11 3 8.30078125 3.29296875 C7.31464844 3.25816406 6.32851563 3.22335937 5.3125 3.1875 C4.31863281 3.16042969 3.32476563 3.13335937 2.30078125 3.10546875 C1.54152344 3.07066406 0.78226563 3.03585937 0 3 C0 2.01 0 1.02 0 0 Z " fill="#303135" transform="translate(26,313)"/>
<path d="M0 0 C-0.3125 2.375 -0.3125 2.375 -1 5 C-1.99 5.66 -2.98 6.32 -4 7 C-3.67 5.68 -3.34 4.36 -3 3 C-4.98 3.99 -4.98 3.99 -7 5 C-7.66 4.34 -8.32 3.68 -9 3 C-5.55930376 0.70620251 -4.27709699 0 0 0 Z " fill="#46474B" transform="translate(458,202)"/>
<path d="M0 0 C1.32 0 2.64 0 4 0 C4.33 1.98 4.66 3.96 5 6 C3.35 5.67 1.7 5.34 0 5 C-0.5625 3.0625 -0.5625 3.0625 -1 1 C-0.67 0.67 -0.34 0.34 0 0 Z " fill="#B9BCC5" transform="translate(215,161)"/>
<path d="M0 0 C0.66 0.33 1.32 0.66 2 1 C1.01 2.485 1.01 2.485 0 4 C0.66 4.33 1.32 4.66 2 5 C-0.31 5.66 -2.62 6.32 -5 7 C-5 5.68 -5 4.36 -5 3 C-2.625 1.1875 -2.625 1.1875 0 0 Z " fill="#A2A5AE" transform="translate(137,407)"/>
<path d="M0 0 C5.52677733 -0.19392201 9.75614911 0.2520497 15 2 C14.67 2.66 14.34 3.32 14 4 C9.03083364 3.48594831 4.70973649 2.76615118 0 1 C0 0.67 0 0.34 0 0 Z " fill="#363844" transform="translate(558,316)"/>
<path d="M0 0 C1.32 0.66 2.64 1.32 4 2 C4 3.32 4 4.64 4 6 C2.35 5.67 0.7 5.34 -1 5 C-1 2 -1 2 0 0 Z " fill="#787A86" transform="translate(480,409)"/>
<path d="M0 0 C0.99 0 1.98 0 3 0 C2.67 1.98 2.34 3.96 2 6 C1.01 6 0.02 6 -1 6 C-1.042721 4.33388095 -1.04063832 2.66617115 -1 1 C-0.67 0.67 -0.34 0.34 0 0 Z " fill="#999CA7" transform="translate(403,468)"/>
<path d="M0 0 C0.66 0.33 1.32 0.66 2 1 C-2.75 5.875 -2.75 5.875 -5 7 C-5.66 6.34 -6.32 5.68 -7 5 C-4.69 3.35 -2.38 1.7 0 0 Z " fill="#4E4F55" transform="translate(356,267)"/>
<path d="M0 0 C0.99 0.33 1.98 0.66 3 1 C0.75 3.5625 0.75 3.5625 -2 6 C-4.3125 5.8125 -4.3125 5.8125 -6 5 C-1.60546875 0.99609375 -1.60546875 0.99609375 0 0 Z " fill="#D3D4DA" transform="translate(382,267)"/>
<path d="M0 0 C1.98 0.495 1.98 0.495 4 1 C3.67 2.65 3.34 4.3 3 6 C1.68 5.34 0.36 4.68 -1 4 C-0.67 2.68 -0.34 1.36 0 0 Z " fill="#9395A1" transform="translate(135,216)"/>
<path d="M0 0 C0.66 0.99 1.32 1.98 2 3 C0.02 5.31 -1.96 7.62 -4 10 C-4 5.75354935 -2.18249194 3.61475228 0 0 Z " fill="#48494D" transform="translate(64,168)"/>
<path d="M0 0 C3.3 0 6.6 0 10 0 C9.67 0.99 9.34 1.98 9 3 C6.03 2.67 3.06 2.34 0 2 C0 1.34 0 0.68 0 0 Z " fill="#3C3C43" transform="translate(334,107)"/>
<path d="M0 0 C0.66 0.33 1.32 0.66 2 1 C1.375 2.9375 1.375 2.9375 0 5 C-3.125 5.75 -3.125 5.75 -6 6 C-4 4 -2 2 0 0 Z " fill="#BBBFC8" transform="translate(147,402)"/>
<path d="M0 0 C0.97110486 3.02121511 1.13617383 5.00463263 0 8 C-0.99 8.495 -0.99 8.495 -2 9 C-2.25 3.375 -2.25 3.375 0 0 Z " fill="#CCCED5" transform="translate(287,305)"/>
<path d="M0 0 C2.97 0.495 2.97 0.495 6 1 C5.34 2.32 4.68 3.64 4 5 C2.68 4.67 1.36 4.34 0 4 C0 2.68 0 1.36 0 0 Z " fill="#AEB1BA" transform="translate(142,221)"/>
<path d="M0 0 C0.33 0.66 0.66 1.32 1 2 C-1.47812494 5.45167403 -2.79606135 7.23163306 -7 8 C-6.02133662 6.85373678 -5.04205413 5.70800212 -4.0625 4.5625 C-3.51722656 3.92441406 -2.97195313 3.28632813 -2.41015625 2.62890625 C-1.63204305 1.73008851 -0.84063472 0.84063472 0 0 Z " fill="#CBCBD1" transform="translate(457,206)"/>
<path d="M0 0 C0.33 0.99 0.66 1.98 1 3 C-0.98 4.98 -2.96 6.96 -5 9 C-5.66 8.67 -6.32 8.34 -7 8 C-4.69 5.36 -2.38 2.72 0 0 Z " fill="#37373E" transform="translate(143,171)"/>
<path d="M0 0 C0.33 0.99 0.66 1.98 1 3 C-0.40445835 5.2636564 -2.1967913 7.0208685 -4 9 C-4.66 8.67 -5.32 8.34 -6 8 C-4.02 5.36 -2.04 2.72 0 0 Z " fill="#C5C4CB" transform="translate(538,482)"/>
<path d="M0 0 C0.6875 1.625 0.6875 1.625 1 4 C-0.4375 7.25 -0.4375 7.25 -2 10 C-2.66 10 -3.32 10 -4 10 C-2.8905928 6.51329166 -1.73662334 3.22515763 0 0 Z " fill="#505256" transform="translate(54,186)"/>
<path d="M0 0 C0.66 0.33 1.32 0.66 2 1 C-1.5 5.875 -1.5 5.875 -6 7 C-4.02 4.69 -2.04 2.38 0 0 Z " fill="#46464F" transform="translate(150,164)"/>
<path d="M0 0 C0.66 0.33 1.32 0.66 2 1 C-0.31 3.31 -2.62 5.62 -5 8 C-5.33 7.01 -5.66 6.02 -6 5 C-4.02 3.35 -2.04 1.7 0 0 Z " fill="#D4D4DB" transform="translate(150,127)"/>
</svg>
